<svg width="150" height="26" viewBox="0 0 150 26" fill="none" xmlns="http://www.w3.org/2000/svg">
<g clip-path="url(#clip0_11006_1056)">
<path d="M4.21818 3.72346L0.0727273 7.7037L0 16.8198V26H4.36364H8.72727V12.8395C8.72727 5.58518 8.65455 -0.320988 8.58182 -0.256791C8.43636 -0.256791 6.47273 1.54074 4.21818 3.72346Z" fill="#90A1B9"/>
<path d="M18.6181 7.51111L10.1818 15.4074V20.3506C10.1818 23.1111 10.3272 25.358 10.4727 25.358C10.6181 25.358 15.3454 21.3136 21.0181 16.4346C27.3454 10.9778 31.4909 7.8321 31.709 8.34568C31.9272 8.79506 31.9999 12.7753 31.8545 17.2691C31.709 21.6988 31.7818 25.358 31.9999 25.358C32.2181 25.358 37.0181 21.2494 42.6909 16.242L53.0909 7.06173V16.563V26H57.4545H61.8181V12.8395V-0.320988H55.4909H49.1636L44.9454 3.33827L40.7272 6.99753V3.33827V-0.320988H33.8909H27.0545L18.6181 7.51111Z" fill="#90A1B9"/>
<path d="M66.3273 1.86173C63.7818 3.98025 63.6363 4.30123 63.6363 7.96049C63.6363 11.4914 63.8545 12.0691 65.9636 13.9309C67.7091 15.4716 69.1636 16.0494 71.7091 16.3704C73.6 16.563 75.2727 17.0765 75.4909 17.4617C75.7091 18.1037 74.1818 18.2963 69.5273 18.2963H63.2727V22.1481V26H70.0363C77.8909 26 80.9454 24.9086 83.0545 21.442C84.7273 18.6173 84.7273 15.921 82.9091 13.3531C81.0909 10.721 78.6182 9.30864 74.9091 8.85926C68.8 8.08889 72.3636 7.38272 82.0363 7.38272H92.0727L96.3636 3.53086L100.655 -0.320988H84.8727H69.0909L66.3273 1.86173Z" fill="#90A1B9"/>
<path d="M94.1091 7.51111L85.3819 15.4074L85.1637 20.3506C85.091 23.1111 85.2364 25.358 85.6001 25.358C85.891 25.358 90.8364 21.2494 96.5819 16.1778L106.982 7.06173L106.764 12.5185L106.546 17.9753L101.382 18.1679L96.291 18.3605L91.9273 22.2123L87.6364 26L101.455 25.8716L115.273 25.679L115.491 12.6469L115.636 -0.320988H109.309H102.909L94.1091 7.51111Z" fill="#90A1B9"/>
<path d="M120.364 3.53086L116.073 7.38272H121.673H127.273V16.6914V26H131.636H136V16.6914V7.38272H138.764C141.164 7.38272 142.036 6.86914 145.818 3.53086L150.109 -0.320988H137.382H124.655L120.364 3.53086Z" fill="#90A1B9"/>
</g>
<defs>
<clipPath id="clip0_11006_1056">
<rect width="150" height="26" fill="white"/>
</clipPath>
</defs>
</svg>
