<svg width="150" height="36" viewBox="0 0 150 36" fill="none" xmlns="http://www.w3.org/2000/svg">
<path d="M118.828 9.17871C123.516 9.17871 123.516 9.17871 124.526 9.97545C124.69 10.2311 124.855 10.4871 125 10.751C125.265 11.1979 125.625 11.5801 125.977 11.9769C126.112 12.1373 126.248 12.2981 126.383 12.4593C126.881 13.0532 127.384 13.6449 127.886 14.2366C127.95 14.3117 128.013 14.3869 128.079 14.4643C128.14 14.5356 128.2 14.6069 128.263 14.6804C128.379 14.8202 128.494 14.9614 128.606 15.1039C128.74 15.2736 128.881 15.4391 129.023 15.6036C129.101 15.6036 129.178 15.6036 129.258 15.6036C129.431 15.4396 129.431 15.4396 129.608 15.222C129.678 15.1394 129.748 15.0568 129.82 14.9717C129.933 14.8365 129.933 14.8365 130.049 14.6985C130.209 14.5101 130.369 14.3218 130.529 14.1337C130.61 14.038 130.692 13.9424 130.775 13.8439C131.129 13.4315 131.493 13.0258 131.858 12.6206C132.439 11.9742 133.011 11.3226 133.574 10.6639C134.002 10.1629 134.442 9.67212 134.883 9.17871C136.43 9.17871 137.977 9.17871 139.57 9.17871C139.57 15.0009 139.57 20.8231 139.57 26.8218C137.83 26.8218 136.09 26.8218 134.297 26.8218C134.258 23.389 134.22 19.9563 134.18 16.4195C133.092 17.6781 133.092 17.6781 132.026 18.95C131.934 19.0608 131.934 19.0608 131.84 19.1738C131.493 19.5902 131.152 20.0097 130.818 20.4339C130.674 20.6128 130.53 20.7916 130.386 20.9705C130.32 21.0558 130.255 21.1411 130.187 21.229C129.718 21.805 129.718 21.805 129.177 21.9027C128.731 21.8128 128.626 21.7497 128.364 21.4294C128.286 21.3359 128.207 21.2425 128.126 21.1462C128.083 21.0924 128.04 21.0387 127.995 20.9833C127.836 20.786 127.674 20.5912 127.511 20.3964C127.253 20.0879 126.997 19.7786 126.741 19.4686C126.312 18.9489 125.878 18.4327 125.442 17.9174C125.374 17.8364 125.305 17.7554 125.235 17.672C125.17 17.5956 125.105 17.5192 125.039 17.4405C124.954 17.3403 124.954 17.3403 124.867 17.238C124.656 16.9956 124.437 16.7589 124.219 16.5215C124.18 19.9206 124.141 23.3197 124.102 26.8218C122.361 26.8218 120.621 26.8218 118.828 26.8218C118.828 20.9996 118.828 15.1774 118.828 9.17871Z" fill="#90A1B9"/>
<path d="M108.867 8.66833C108.756 8.9093 108.664 9.05438 108.43 9.21769C108.034 9.31085 107.806 9.19244 107.432 9.05714C104.645 8.12141 101.733 8.28512 99.0062 9.29686C97.9693 9.70442 97.0632 10.2609 96.211 10.912C96.0773 11.0137 96.0773 11.0137 95.9409 11.1175C94.1567 12.5681 93.0012 14.7366 92.8849 16.8513C92.8456 18.1234 92.9064 19.2936 93.3985 20.4984C93.4482 20.6202 93.4979 20.7421 93.5491 20.8677C94.0995 22.0859 94.9491 23.1161 95.9766 24.0678C96.0317 24.0248 96.0869 23.9818 96.1437 23.9375C96.2166 23.8816 96.2896 23.8258 96.3648 23.7682C96.4368 23.7126 96.5089 23.657 96.5831 23.5997C96.7969 23.4559 96.7969 23.4559 97.1485 23.3539C97.3897 23.4822 97.3897 23.4822 97.6685 23.6726C98.8623 24.4336 100.216 24.822 101.689 24.8135C101.794 24.8129 101.898 24.8124 102.005 24.8118C103.651 24.7853 105.153 24.2959 106.345 23.2846C106.523 23.1499 106.523 23.1499 106.758 23.1499C106.79 23.0914 106.821 23.0329 106.854 22.9726C106.994 22.7382 107.154 22.5311 107.329 22.3149C108.366 20.9724 108.659 19.464 108.318 17.8803C107.802 16.3165 106.842 15.1135 105.234 14.2774C104.124 13.7684 103.109 13.5244 101.858 13.5316C101.703 13.5325 101.703 13.5325 101.544 13.5334C99.8236 13.5612 98.1603 14.1411 96.9141 15.1952C95.7514 16.3703 95.1936 17.6441 95.0391 19.1726C94.7657 19.1769 94.4922 19.1768 94.2188 19.1726C93.9516 18.9401 94.0674 18.4003 94.065 18.089C94.065 16.0578 94.891 14.3572 96.4453 12.8496C96.5059 12.7875 96.5665 12.7253 96.6289 12.6612C98.173 11.1827 100.495 10.528 102.723 10.373C105.154 10.3176 107.337 11.0035 109.219 12.3397C109.148 12.6842 108.996 12.8825 108.75 13.1556C108.814 13.2126 108.878 13.2697 108.944 13.3285C111.065 15.2914 112.027 17.5871 111.948 20.2848C111.824 22.7049 110.581 24.7477 108.633 26.4134C108.552 26.4836 108.471 26.5538 108.388 26.6261C106.287 28.3346 103.363 29.0312 100.547 28.9912C98.0203 28.9041 95.7563 28.0786 93.8672 26.6173C93.5439 26.7364 93.2951 26.8886 93.0295 27.0846C92.9192 27.166 92.809 27.2474 92.6953 27.3312C90.009 25.1742 88.5388 22.3368 88.326 19.163C88.2506 16.3097 89.3221 13.618 91.4063 11.4219C91.5011 11.3213 91.596 11.2207 91.6938 11.1171C95.874 6.91828 103.374 5.82927 108.867 8.66833Z" fill="#90A1B9"/>
<path d="M18.1641 9.17871C20.1363 9.17871 22.1086 9.17871 24.1406 9.17871C24.4427 9.82235 24.7449 10.466 25.0562 11.1291C25.8728 12.8674 26.6939 14.604 27.5186 16.3394C28.1958 17.7646 28.8707 19.1905 29.5416 20.6179C29.994 21.5803 30.4499 22.5413 30.9109 23.5005C31.0043 23.6952 31.0977 23.8898 31.191 24.0844C31.3703 24.4581 31.5504 24.8315 31.7309 25.2047C31.8119 25.3735 31.8929 25.5423 31.9739 25.7111C32.0115 25.7884 32.0491 25.8656 32.0879 25.9452C32.2349 26.2531 32.3438 26.4849 32.3438 26.8218C30.7195 26.8218 29.0953 26.8218 27.4219 26.8218C26.6319 25.3321 26.6319 25.3321 26.3356 24.6881C26.303 24.6176 26.2705 24.5472 26.2369 24.4746C26.1673 24.324 26.0978 24.1734 26.0285 24.0227C25.8376 23.6078 25.6453 23.1935 25.453 22.7791C25.4129 22.6926 25.3728 22.6062 25.3315 22.5171C24.8833 21.5527 24.4242 20.5923 23.9648 19.632C23.0327 17.6823 22.1184 15.7265 21.2109 13.7679C20.6699 14.8597 20.1866 15.9711 19.6989 17.0815C19.5555 17.4079 19.4116 17.734 19.2677 18.0602C19.1754 18.2701 19.0831 18.4799 18.9908 18.6898C18.9271 18.8342 18.9271 18.8342 18.862 18.9815C18.6124 19.5509 18.3792 20.1229 18.1641 20.7028C18.2763 20.6745 18.3885 20.6463 18.5042 20.6171C19.3651 20.4098 20.2002 20.2564 21.0938 20.212C21.2134 20.2058 21.2134 20.2058 21.3354 20.1995C21.8972 20.1789 22.4188 20.1989 22.9688 20.2949C23.1505 20.451 23.1505 20.451 23.2397 20.6518C23.2707 20.716 23.3017 20.7801 23.3336 20.8462C23.4881 21.2396 23.6395 21.6338 23.7891 22.0286C23.6403 22.0509 23.4915 22.0733 23.3382 22.0963C20.5632 22.5326 17.9885 23.4428 16.284 25.482C15.9767 25.9108 15.7284 26.3698 15.4688 26.8218C13.8445 26.8218 12.2203 26.8218 10.5469 26.8218C10.6273 26.4019 10.6893 26.1096 10.859 25.7297C10.8992 25.6388 10.9394 25.548 10.9808 25.4544C11.0248 25.3568 11.0688 25.2591 11.114 25.1586C11.1832 25.0029 11.1832 25.0029 11.2537 24.8441C11.4057 24.5024 11.5586 24.161 11.7114 23.8196C11.8182 23.5798 11.9249 23.34 12.0316 23.1001C12.2505 22.6078 12.4697 22.1155 12.689 21.6233C13.112 20.6734 13.5307 19.722 13.9488 18.7704C14.1205 18.3797 14.2923 17.9889 14.4642 17.5982C14.5935 17.3042 14.7228 17.0102 14.8521 16.7161C15.1295 16.0854 15.4072 15.4547 15.6848 14.824C15.7796 14.6088 15.8743 14.3936 15.969 14.1784C16.1044 13.8709 16.2398 13.5633 16.3752 13.2558C16.4994 12.9737 16.6236 12.6916 16.7477 12.4095C16.7996 12.2917 16.7996 12.2917 16.8526 12.1714C17.2914 11.1744 17.7273 10.1764 18.1641 9.17871Z" fill="#90A1B9"/>
<path d="M60.0641 8.34265C62.1534 8.27602 64.267 8.61892 66.2109 9.28042C66.2276 10.0918 66.1779 10.8883 66.0937 11.6961C66.0825 11.8078 66.0714 11.9195 66.0599 12.0346C66.0326 12.3064 66.0048 12.5781 65.9765 12.8498C65.2657 12.7873 64.6058 12.66 63.9184 12.4929C61.981 12.0242 59.4771 11.7629 57.6114 12.5614C57.2029 12.7678 56.8022 12.9777 56.6015 13.3597C56.534 13.758 56.5025 14.0114 56.7183 14.3692C57.6869 15.4629 59.5655 15.7054 61.0083 16.0668C63.2782 16.6385 65.6845 17.2774 66.914 19.1728C67.6642 20.526 67.6471 22.0729 67.1438 23.4939C66.4917 24.931 65.4654 25.9335 63.8672 26.6175C60.168 27.9608 55.6845 27.6828 51.914 26.7195C51.9787 25.3823 52.1701 24.067 52.3828 22.7422C52.5831 22.8031 52.5831 22.8031 52.7875 22.8653C55.3928 23.6342 58.8442 24.2464 61.4836 23.2346C62.0541 22.9426 62.3844 22.667 62.5708 22.1048C62.5804 21.6036 62.4696 21.2984 62.1093 20.9065C61.0944 20.1599 59.6846 19.9084 58.433 19.6002C53.6735 18.4218 53.6735 18.4218 52.3832 16.7232C51.5541 15.3752 51.4781 13.9166 51.9182 12.4483C52.3772 11.1804 53.2845 10.2216 54.6011 9.54494C55.8534 8.97922 57.0814 8.65091 58.4765 8.46455C58.5758 8.45115 58.675 8.43774 58.7773 8.42392C59.2052 8.37729 59.6336 8.36328 60.0641 8.34265Z" fill="#90A1B9"/>
<path d="M68.6719 9.17871C74.782 9.17871 80.8922 9.17871 87.1875 9.17871C87.1875 10.323 87.1875 11.4672 87.1875 12.6461C84.9832 12.6461 82.7789 12.6461 80.5078 12.6461C80.5078 17.3241 80.5078 22.0021 80.5078 26.8218C78.7676 26.8218 77.0273 26.8218 75.2344 26.8218C75.2344 22.1438 75.2344 17.4658 75.2344 12.6461C73.0688 12.6461 70.9031 12.6461 68.6719 12.6461C68.6719 11.5019 68.6719 10.3576 68.6719 9.17871Z" fill="#90A1B9"/>
<path d="M35.5078 9.17871C37.2094 9.17871 38.9109 9.17871 40.6641 9.17871C40.6641 13.8567 40.6641 18.5346 40.6641 23.3543C43.6805 23.3543 46.6969 23.3543 49.8047 23.3543C49.8047 24.4986 49.8047 25.6428 49.8047 26.8218C45.0867 26.8218 40.3687 26.8218 35.5078 26.8218C35.5078 20.9996 35.5078 15.1774 35.5078 9.17871Z" fill="#90A1B9"/>
<path d="M113.906 12.4419C114.022 12.4419 114.138 12.4419 114.258 12.4419C114.785 13.3733 115.253 14.2861 115.547 15.2974C115.573 15.3884 115.6 15.4794 115.627 15.5731C116.202 17.9896 115.73 20.7794 114.21 22.8784C114.023 23.0481 114.023 23.0481 113.569 23.1119C113.448 23.0908 113.328 23.0698 113.203 23.0481C113.356 22.6351 113.531 22.2374 113.723 21.8371C114.673 19.6842 114.605 17.3278 113.603 15.1966C113.38 14.7837 113.122 14.3931 112.845 14.0063C112.734 13.7677 112.734 13.7677 112.807 13.5553C112.982 13.3436 113.169 13.1696 113.386 12.9901C113.688 12.7432 113.688 12.7432 113.906 12.4419Z" fill="#90A1B9"/>
</svg>
