<svg width="150" height="60" viewBox="0 0 150 60" fill="none" xmlns="http://www.w3.org/2000/svg">
<g clip-path="url(#clip0_11006_1029)">
<path d="M67.75 0.970582C65.85 1.32352 62.15 2.55882 59.55 3.66176C51.8 6.92646 45.65 13.1029 42.75 20.4265L41.55 23.4265L20.75 23.5588C1 23.6471 0 23.6912 0 24.4853C0 27.1323 1.7 28.8088 5.1 29.5588C5.9 29.6912 6.55 30.2206 6.8 30.8382C7.3 32.3382 8.45 33.2647 10.2 33.5735C13 34.1029 13.35 34.2353 13.9 35.3382C14.9 37.2353 17.05 37.8088 24.3 38.0735C30.65 38.3382 30.95 38.3824 31.2 39.3088C31.6 40.7647 34.3 41.6912 39.2 42L43.5 42.3088L45.25 45.0882C49.1 51.1324 56.1 56.2059 63.95 58.6765C67.9 59.9118 68.75 60 74.75 60C80.75 60 81.6 59.9118 85.55 58.6765C93.4 56.2059 100.4 51.1324 104.25 45.0882L106 42.3088L110.5 42.0441C115.4 41.7353 117.75 40.9412 118.55 39.3529C119.05 38.3824 119.45 38.3382 125.4 38.0735C132.95 37.7647 134.6 37.3235 135.95 35.2941C136.7 34.1912 137.3 33.7941 138.25 33.7941C140.6 33.7941 142.95 32.2059 143 30.6618C143 30.1765 143.75 29.7794 145.15 29.4706C147.85 28.8529 149 27.75 149.35 25.4559L149.65 23.6471L128.8 23.5588L107.95 23.4265L106.85 20.5147C105.2 16.2794 102.7 12.8382 98.5 9.04411C90.55 1.98529 78.9 -1.10295 67.75 0.970582ZM85.4 2.60293C93.75 5.20588 100.35 10.2794 104.2 17.0294C106.7 21.4853 106.95 22.3235 105.65 22.3235C105 22.3235 104.05 21.0441 102.5 18.2206C99.4 12.5294 94.95 8.60294 88.45 5.86764C83.05 3.57352 79.95 2.91176 74.75 2.91176C69.55 2.91176 66.45 3.57352 61.05 5.86764C54.55 8.60294 50.1 12.5294 47 18.2206C45.45 21.0441 44.5 22.3235 43.9 22.3235C42.6 22.3235 42.75 21.5735 44.95 17.6471C49.3 9.70588 57.3 3.92646 66.9 1.80882C71.55 0.749994 80.85 1.14705 85.4 2.60293ZM81.7 5.55882C83.85 6.04411 86.95 7.05882 88.65 7.85294C94 10.3235 100.6 16.9853 101.75 21.0882L102.1 22.2794L96.7 22.4118L91.35 22.5441L86.75 31.1471L82.15 39.75L80.35 39.8824C79.3 39.9706 78.5 40.2353 78.5 40.4559C78.5 40.7206 79.4 40.8529 80.5 40.7647L82.5 40.6324L87.25 31.8088L92 22.9853L99 22.8529L106.05 22.7206L104.25 25.8529L102.5 28.9412H98.5C93.85 28.9412 94.75 28.0588 89.1 37.5441L85.15 44.1618L81.7 44.4265L78.25 44.6471L82.05 44.7353C85.85 44.8235 85.9 44.8235 86.5 43.5L87.1 42.1765H93.85H100.55L99.65 43.5882C99.15 44.3824 97.2 46.4118 95.25 48.1324C86 56.3382 72.8 58.1912 61.3 52.8529C57.45 51.0882 51.95 46.6324 50.1 43.8088L49.05 42.1765H55.75H62.45L63.25 43.5C64 44.7794 64.15 44.8235 67.5 44.8235H71V49.4559V54.0882H73H75V42.3971V30.7059H73H71V35.3382V39.9706H69.35H67.65L63 31.1471L58.35 22.3235H52.85H47.4L47.75 21.0882C48.9 16.9853 55.5 10.3235 60.85 7.85294C67.45 4.80882 74.75 3.97058 81.7 5.55882ZM62.05 31.0147C64.5 35.6029 66.7 39.6176 66.95 39.9706C67.15 40.3235 68.15 40.6765 69.2 40.7647C70.95 40.8971 71 40.9853 71 42.6618V44.3824H67.85H64.75L60.5 37.2353C58.15 33.3088 55.95 29.8676 55.6 29.5147C55.15 29.1618 53.65 28.9412 51.05 28.9412H47.2L45.6 26.0735C44.7 24.4853 44 23.0735 44 22.9853C44 22.8529 47.05 22.7647 50.8 22.7647H57.55L62.05 31.0147ZM45.1 26.6471L46.6 28.9853L25 28.8529L3.4 28.7206L2.2 27.4853C1.55 26.8235 1 25.7647 1 25.1471V24.0882L22.3 24.1765L43.55 24.3088L45.1 26.6471ZM149 24.4853C149 24.6618 148.75 25.4559 148.45 26.25C147.4 28.9412 147.2 28.9412 124.25 28.9412C112.85 28.9412 103.5 28.8088 103.5 28.6765C103.5 28.5441 104.1 27.4412 104.9 26.25L106.25 24.0882H127.65C139.4 24.0882 149 24.2647 149 24.4853ZM142.5 30C142.5 30.3529 141.95 31.2353 141.3 31.8971L140.1 33.1324L116.25 33.2647L92.45 33.3971L93.5 31.6323L94.5 29.8676L98.9 29.6912C101.3 29.6471 112.1 29.5147 122.9 29.4706C139.7 29.3823 142.5 29.4706 142.5 30ZM56.15 31.3676C56.6 32.25 57 33.0441 57 33.1324C57 33.6176 11.6 33.3529 10.05 32.8676C8.55 32.3823 7.5 31.3235 7.5 30.3088C7.5 29.9559 14.8 29.8235 31.4 29.8235H55.3L56.15 31.3676ZM58.65 35.7794L59.5 37.3235L39.1 37.2794C17.6 37.2794 16.05 37.1471 14.6 35.2059L13.9 34.2353H35.85H57.8L58.65 35.7794ZM135.4 34.7647C135.3 35.0294 134.55 35.6912 133.8 36.1765C132.45 37.0588 131.75 37.1029 111.45 37.2353C99.95 37.3235 90.5 37.2353 90.5 37.1029C90.5 36.9706 90.85 36.2647 91.25 35.5588L92.05 34.2353H113.8C130.4 34.2353 135.55 34.3676 135.4 34.7647ZM61.15 39.75L62 41.2941L49.1 41.25C35.45 41.25 33.45 40.9853 32.1 39.1765L31.4 38.2059H45.85H60.3L61.15 39.75ZM118 38.4706C118 39.3971 116.7 40.4559 115.1 40.8529C113.2 41.2941 88 41.5147 88 41.0735C88 40.8971 88.35 40.2353 88.75 39.5294L89.55 38.2059H103.75C111.6 38.2059 118 38.3382 118 38.4706ZM47.9 44.1176C50.9 49.1029 58.3 54.3971 65.05 56.3382C70.4 57.8824 79.1 57.8824 84.45 56.3382C91.2 54.3971 98.6 49.1029 101.6 44.1176C102.45 42.6618 103.05 42.1765 103.95 42.1765C105.4 42.1765 105.25 42.6176 102.2 46.6324C98.45 51.6618 92.65 55.5882 85.6 57.9706C82.55 59.0294 81.6 59.1176 74.75 59.1176C67.9 59.1176 66.95 59.0294 63.9 57.9706C56.5 55.5 49.85 50.6912 46.35 45.3529C45.3 43.8088 44.5 42.4853 44.5 42.3529C44.5 42.2647 45 42.1765 45.65 42.1765C46.45 42.1765 47.05 42.7059 47.9 44.1176Z" fill="#90A1B9"/>
<path d="M60.1499 11.2941C56.7499 13.1029 56.9999 18.2206 60.4999 19.8088C62.8999 20.9118 65.8999 20.5588 67.3499 19.0147C68.9999 17.3382 68.8499 16.5882 66.7499 16.5882C65.5499 16.5882 64.9999 16.8088 64.9999 17.2059C64.9999 18.2206 62.9999 18.5735 62.0999 17.7353C61.1499 16.8971 61.0499 14.2941 61.9499 13.3235C62.8499 12.3529 63.8499 12.4412 64.8499 13.5C65.8999 14.5588 68.4999 14.6912 68.4999 13.6765C68.4999 13.3235 67.8499 12.3971 67.0499 11.6912C65.2499 10.1471 62.5999 9.97059 60.1499 11.2941Z" fill="#90A1B9"/>
<path d="M70.5 15.2647V20.1177H72.25C73.9 20.1177 74 20.0294 74 18.6177C74 17.1618 74.1 17.0736 75.9 16.9412C77.4 16.853 77.8 16.6324 77.9 15.7941C78.05 14.9118 77.85 14.8236 76.05 14.8236C74.2 14.8236 74 14.7353 74 13.7206C74 12.7059 74.15 12.6177 76.55 12.6177C78.9 12.6177 79.05 12.5294 78.9 11.603C78.75 10.7206 78.45 10.6324 74.65 10.5L70.5 10.3677V15.2647Z" fill="#90A1B9"/>
<path d="M80.5 15.2647V20.1177H82.25C83.9 20.1177 84 20.0294 84 18.5294C84 17.0736 84.1 16.9853 85.4 17.1177C86.5 17.2059 86.8 17.4706 86.9 18.6618C87.05 19.9853 87.2 20.1177 88.8 20.1177C90.4 20.1177 90.5 20.0294 90.5 18.6177C90.5 17.7794 90.15 16.8089 89.75 16.4118C89.1 15.8383 89.1 15.6177 89.85 14.4706C91.55 11.8236 88.9 10.4118 82.15 10.4118H80.5V15.2647ZM86.95 13.2794C87.5 13.7647 86.35 14.8236 85.25 14.8236C84.25 14.8236 84 14.603 84 13.6765C84 12.6177 84.15 12.5736 85.35 12.8383C86.15 13.0147 86.85 13.1912 86.95 13.2794Z" fill="#90A1B9"/>
</g>
<defs>
<clipPath id="clip0_11006_1029">
<rect width="150" height="60" fill="white"/>
</clipPath>
</defs>
</svg>
