<svg width="150" height="31" viewBox="0 0 150 31" fill="none" xmlns="http://www.w3.org/2000/svg">
<path d="M11.7977 6.07934C9.29769 6.46864 7.01436 7.82399 6.24769 9.36678C5.44769 10.9528 5.66436 12.8849 6.79769 14.3124C7.71436 15.4659 9.03103 16.2156 12.381 17.4556C15.6977 18.6956 16.2477 19.0417 16.2477 19.9212C16.2477 20.5556 15.581 21.2477 14.781 21.4207C13.2144 21.7812 10.631 21.6514 8.03103 21.0747C7.13103 20.8728 6.36436 20.7142 6.33103 20.7142C6.28103 20.7142 6.24769 21.5217 6.24769 22.5021V24.29L7.38103 24.5207C10.2477 25.0831 14.231 25.1552 16.5477 24.6793C18.8144 24.2179 20.8644 22.9491 21.681 21.4784C22.2144 20.5268 22.3977 18.9552 22.081 17.8449C21.8477 16.9798 21.031 15.9705 19.931 15.1919C19.5144 14.8891 17.6477 13.9807 15.7977 13.1877C11.5644 11.3854 11.031 10.924 11.9977 9.91469C12.231 9.68399 12.7644 9.3812 13.1644 9.23702C14.5477 8.79004 18.231 9.1505 20.431 9.95795C20.681 10.0589 20.6977 9.88585 20.681 8.28539L20.6477 6.52632L20.081 6.41097C17.331 5.8919 13.8644 5.74771 11.7977 6.07934Z" fill="#90A1B9"/>
<path d="M135.314 5.99281C132.614 6.36769 130.331 7.63653 129.398 9.28025C129.064 9.857 128.998 10.1886 128.998 11.3421C128.998 12.5244 129.064 12.8272 129.431 13.5193C129.964 14.5142 130.831 15.3505 131.898 15.9561C132.348 16.2012 134.014 16.8789 135.598 17.47C138.798 18.6668 139.414 19.0561 139.414 19.9068C139.414 21.6803 136.081 22.1416 131.198 21.0747C130.298 20.8728 129.514 20.7142 129.448 20.7142C129.381 20.7142 129.331 21.5216 129.331 22.5021V24.29L130.581 24.5207C133.514 25.0686 137.148 25.1551 139.414 24.737C141.764 24.3189 144.014 22.9635 144.864 21.464C145.281 20.7286 145.331 20.4835 145.331 19.2003C145.331 17.917 145.281 17.6719 144.881 17.023C144.031 15.6389 142.731 14.7882 138.964 13.1877C134.781 11.3998 134.231 10.9384 135.114 9.97234C135.698 9.32351 136.648 9.03514 138.198 9.03514C139.814 9.03514 142.131 9.42444 143.598 9.95793C143.831 10.0444 143.848 9.857 143.798 8.29979C143.764 7.33374 143.731 6.5263 143.698 6.49746C143.681 6.48304 142.948 6.36769 142.081 6.23793C140.248 5.94955 136.548 5.81979 135.314 5.99281Z" fill="#90A1B9"/>
<path d="M25.2477 15.3795V24.6074H28.4143H31.581V15.3795V6.15161H28.4143H25.2477V15.3795Z" fill="#90A1B9"/>
<path d="M36.5811 15.3792V24.6071L44.4144 24.6359L52.2477 24.6792V22.9057V21.1466H47.4144H42.5644L42.6144 18.9406L42.6644 16.749L45.4977 16.7345C47.0644 16.7201 48.8811 16.7057 49.5477 16.6913L50.7477 16.6769V15.235V13.7932H46.6644H42.5644L42.6144 11.6736L42.6644 9.53966L47.3811 9.55408H52.0811V7.85269V6.15129H44.3311H36.5811V15.3792Z" fill="#90A1B9"/>
<path d="M55.9143 15.3792V24.6071H57.9976H60.081L60.1143 18.5081C60.1643 13.3606 60.1976 12.4955 60.381 12.856C60.4976 13.0867 61.8476 15.8983 63.3643 19.0848L66.1476 24.8955H67.9476C68.931 24.8955 69.7476 24.8811 69.7476 24.8523C69.7476 24.7225 75.9143 12.4523 75.9143 12.5676C75.9143 12.6397 75.9143 15.3936 75.9143 18.6523L75.8976 24.6071H78.9143H81.9143V15.3792V6.15132L78.2143 6.18016L74.5143 6.22341L71.7476 11.8755C70.231 14.9755 68.9643 17.4843 68.9143 17.4411C68.881 17.4123 67.6643 14.8746 66.231 11.8034L63.6143 6.22341L59.7643 6.18016L55.9143 6.15132V15.3792Z" fill="#90A1B9"/>
<path d="M86.9143 15.3792V24.6071L94.7476 24.6359L102.581 24.6792V22.9057V21.1466H97.7476H92.8976L92.9476 18.9406L92.9976 16.749L97.081 16.7345L101.164 16.7201L101.214 15.2638L101.264 13.7932L97.131 13.7643L92.9976 13.7211V11.6304V9.55408H97.7143L102.414 9.53966V7.85269V6.15129H94.6643H86.9143V15.3792Z" fill="#90A1B9"/>
<path d="M105.985 15.7281V24.9561H108.068H110.152L110.185 19.0444L110.235 13.1328L113.985 19.0444L117.735 24.9416L121.118 24.9561H124.485V15.7281V6.50024H122.402H120.318L120.285 12.3686L120.235 18.2514L119.635 17.3142C119.302 16.7951 117.635 14.1565 115.918 11.4314L112.785 6.50024H109.385H105.985V15.7281Z" fill="#90A1B9"/>
</svg>
