<svg width="32" height="32" viewBox="0 0 32 32" fill="none" xmlns="http://www.w3.org/2000/svg">
<path d="M24 28C24 25.171 22.8762 22.4579 20.8758 20.4575C18.8754 18.4571 16.1623 17.3333 13.3334 17.3333C10.5044 17.3333 7.79127 18.4571 5.79088 20.4575C3.79049 22.4579 2.66669 25.171 2.66669 28" stroke="#CAD5E2" stroke-linecap="round" stroke-linejoin="round"/>
<path d="M12.6667 17.3333C16.3486 17.3333 19.3333 14.3486 19.3333 10.6667C19.3333 6.98477 16.3486 4 12.6667 4C8.98477 4 6 6.98477 6 10.6667C6 14.3486 8.98477 17.3333 12.6667 17.3333Z" stroke="#CAD5E2" stroke-linecap="round" stroke-linejoin="round"/>
<path d="M29.3334 26.6667C29.3334 22.1733 26.6667 18 24 16C24.8766 15.3424 25.5775 14.4788 26.0408 13.4857C26.5041 12.4926 26.7154 11.4006 26.656 10.3064C26.5967 9.21219 26.2686 8.14946 25.7007 7.21228C25.1327 6.2751 24.3425 5.49237 23.4 4.93335" stroke="#CAD5E2" stroke-linecap="round" stroke-linejoin="round"/>
</svg>
