<svg width="32" height="32" viewBox="0 0 32 32" fill="none" xmlns="http://www.w3.org/2000/svg">
<path d="M12.8946 5.51464C12.9681 4.74176 13.3271 4.02404 13.9014 3.50168C14.4758 2.97933 15.2243 2.68988 16.0006 2.68988C16.777 2.68988 17.5255 2.97933 18.0998 3.50168C18.6742 4.02404 19.0332 4.74176 19.1066 5.51464C19.1508 6.01392 19.3146 6.4952 19.5842 6.91776C19.8537 7.34033 20.2211 7.69172 20.6553 7.94221C21.0894 8.1927 21.5775 8.33491 22.0782 8.3568C22.579 8.3787 23.0776 8.27963 23.532 8.06798C24.2375 7.74768 25.0369 7.70134 25.7746 7.93796C26.5124 8.17458 27.1358 8.67725 27.5233 9.34812C27.9109 10.019 28.035 10.8101 27.8715 11.5674C27.708 12.3247 27.2685 12.9941 26.6386 13.4453C26.2285 13.7331 25.8937 14.1155 25.6625 14.56C25.4314 15.0046 25.3107 15.4983 25.3107 15.9993C25.3107 16.5004 25.4314 16.9941 25.6625 17.4386C25.8937 17.8832 26.2285 18.2655 26.6386 18.5533C27.2685 19.0045 27.708 19.6739 27.8715 20.4312C28.035 21.1885 27.9109 21.9796 27.5233 22.6505C27.1358 23.3214 26.5124 23.824 25.7746 24.0607C25.0369 24.2973 24.2375 24.2509 23.532 23.9306C23.0776 23.719 22.579 23.6199 22.0782 23.6418C21.5775 23.6637 21.0894 23.8059 20.6553 24.0564C20.2211 24.3069 19.8537 24.6583 19.5842 25.0809C19.3146 25.5034 19.1508 25.9847 19.1066 26.484C19.0332 27.2569 18.6742 27.9746 18.0998 28.4969C17.5255 29.0193 16.777 29.3087 16.0006 29.3087C15.2243 29.3087 14.4758 29.0193 13.9014 28.4969C13.3271 27.9746 12.9681 27.2569 12.8946 26.484C12.8506 25.9845 12.6868 25.5031 12.4171 25.0803C12.1475 24.6576 11.7799 24.3061 11.3456 24.0556C10.9113 23.8051 10.423 23.6629 9.92208 23.6412C9.42116 23.6194 8.92238 23.7187 8.46798 23.9306C7.7625 24.2509 6.96308 24.2973 6.22531 24.0607C5.48754 23.824 4.86421 23.3214 4.47662 22.6505C4.08904 21.9796 3.96493 21.1885 4.12846 20.4312C4.29199 19.6739 4.73145 19.0045 5.36131 18.5533C5.77147 18.2655 6.10629 17.8832 6.33743 17.4386C6.56857 16.9941 6.68925 16.5004 6.68925 15.9993C6.68925 15.4983 6.56857 15.0046 6.33743 14.56C6.10629 14.1155 5.77147 13.7331 5.36131 13.4453C4.73233 12.9939 4.29365 12.3248 4.13051 11.568C3.96738 10.8111 4.09146 10.0207 4.47862 9.35026C4.86579 8.67982 5.4884 8.17728 6.22543 7.9403C6.96247 7.70332 7.76129 7.74882 8.46665 8.06798C8.92099 8.27963 9.41964 8.3787 9.92038 8.3568C10.4211 8.33491 10.9092 8.1927 11.3434 7.94221C11.7775 7.69172 12.1449 7.34033 12.4145 6.91776C12.684 6.4952 12.8478 6.01392 12.892 5.51464" stroke="#CAD5E2" stroke-linecap="round" stroke-linejoin="round"/>
<path d="M16 20C18.2091 20 20 18.2091 20 16C20 13.7909 18.2091 12 16 12C13.7909 12 12 13.7909 12 16C12 18.2091 13.7909 20 16 20Z" stroke="#CAD5E2" stroke-linecap="round" stroke-linejoin="round"/>
</svg>
