<svg xmlns="http://www.w3.org/2000/svg" width="2742" height="1536" xmlns:v="https://vecta.io/nano"><path d="M0 0h2742v1536H0V0z" fill="#050915"/><path d="M1096.05 237.612l7.58-.016 16.415-.007 24.411-.01 43.61-.017 38.164-.002 5.126-.002 7.726-.003 71.787-.008 2.731.001 21.954.008 85.642-.021 96.3-.032 10.272.002h2.555l38.133-.019 43.375.002 24.252-.009 18.137.015 7.316-.01c26.412-.105 48.494 5.152 68.276 23.704 15.523 16.178 21.674 37.982 21.565 59.891l.013 4.826-.005 13.231.01 14.406.003 25.239.004 37.532.006 67.037-.006 58.674.001 3.931.003 15.796.005 44.157v2.031l-.009 64.067-.001 2.099-.011 33.74.001 133.776.011 33.706v2.096l.008 63.987v2.03l-.006 46.096-.003 15.772v3.923l.008 58.625-.01 66.676.002 37.309-.011 24.933.001 14.198-.01 12.942.007 4.628c.116 25.006-5.445 46.21-23.389 64.458l-2.082 2.121c-14.343 13.651-33.113 20.227-52.686 20.131l-3.159.009c-3.487.007-6.973 0-10.46-.007l-7.584.009-16.478.002c-8.168-.008-16.336-.004-24.504.002l-43.769.004-38.309-.004h-2.567l-10.318.002c-32.263.006-64.526.001-96.789-.01-28.654-.009-57.308-.009-85.962.001l-96.6.009-10.302-.002h-2.562c-12.758-.002-25.517 0-38.275.005-14.512.006-29.024.004-43.536-.007-8.118-.006-16.236-.006-24.354.001a7594.41 7594.41 0 0 1-18.197-.01c-2.451-.002-4.902-.001-7.352.004-26.366.048-48.008-3.143-68.018-21.953-9.965-10.112-16.283-21.627-20.137-35.309l-.645-2.09c-1.792-5.893-2.48-11.498-2.483-17.646l-.005-1.989.001-6.605-.006-4.801-.003-13.247-.009-14.392-.01-28.57-.014-34.211-.027-82.695-.01-39.113-.027-131.766v-6.298l-.001-12.631-.001-14.787v-4.232l-.042-135.908-.037-97.656v-2.029l-.004-46.081-.001-15.767v-3.922l-.027-62.503-.01-62.815-.015-37.323.001-24.935-.007-14.205.005-12.942-.008-4.634c-.065-12.899 1.059-25.718 6.697-37.517l.935-2.021L1011 277l1.367-2.809c7.33-13.554 20.517-23.594 34.258-29.941l1.788-.855c15.016-6.541 31.63-5.826 47.637-5.783z" fill="#e82629"/><path d="M1152.811 355.746l2.375-.01 7.908.003 5.715-.012 15.728-.004 16.953-.014 33.223-.012 26.997-.004 3.877-.002 7.797-.004 52.375-.008h2.069l10.383.003 2.083.001 4.17.001 64.893-.021 72.893-.027 38.601-.015 32.861-.001 16.772-.005 15.348.006 5.558-.008 7.546.011 2.186-.022c6.389.068 11.685 1.941 16.564 6.147l1.637 1.359c5.568 6.282 6.255 11.374 6.171 19.51l.015 3.221-.022 10.722.012 7.75-.01 16.868-.015 25.082-.022 42.194-.035 41.782v2.624l-.001 10.544-.06 96.096-.062 90.778-.001 2.826-.004 14.091-.001 2.809-.001 5.606-.041 89.18-.014 26.131-.042 54.956-.019 22.736-.021 20.776-.004 7.552-.013 10.193.004 3.025-.01 2.716-.002 2.358C1625 997 1625 997 1624 998a233.57 233.57 0 0 1-8.677.14l-2.792.009-9.339.012-6.666.015-18.168.024-11.347.012-31.417.026h-2.033l-2.038.001-4.088.001-2.048.001-32.815.045-33.694.037-18.916.025-17.808.01a1333.32 1333.32 0 0 0-6.529.013c-2.977.013-5.953.007-8.93-.004l-2.595.024c-6.957-.057-13.048-1.469-18.973-5.204-3.752-3.862-5.298-7.338-5.5-12.687.515-12.334 4.6-24.813 7.474-36.789l3.346-13.992.67-2.806 5.51-23.413.835-3.587 2.997-12.883 3.417-14.655.498-2.128 8.895-36.233c2.772-10.983 5.351-21.986 7.661-33.077 1.202-5.685 2.635-11.308 4.07-16.937l10.938-45.113c1.276-5.578 2.613-11.118 4.124-16.637 1.793-6.55 3.314-13.14 4.79-19.767l4.245-18.245 1.106-4.62 1.662-6.891 1.559-6.477.919-3.797c.617-3.251.782-6.155.655-9.453-5.727-3.741-11.218-3.437-17.905-3.42l-3.619-.026-9.794-.023c-2.733 0-5.466-.008-8.2-.017l-19.364-.015c-6.638.007-13.276-.016-19.914-.053l-17.147-.038a1304.64 1304.64 0 0 1-10.219-.028c-3.806-.022-7.61-.012-11.415.005l-3.376-.04c-7.942.085-14.54 1.807-20.694 7.062-3.198 3.485-4.387 7.088-5.45 11.617l-.488 2.012-1.477 6.34-.986 4.137-1.98 8.376-8.397 33.491-17.961 73.859c-1.396 6.29-3.009 12.522-4.613 18.762l-2.5 10-3.566 14.195a592.67 592.67 0 0 0-4.871 20.68c-1.243 5.736-2.665 11.368-4.312 17-3.138 10.812-5.421 21.835-7.808 32.832-1.971 9.066-4.087 18.076-6.377 27.067-8.576 32.962-8.576 32.962-14.98 66.387-.586 3.84-.586 3.84-1.105 5.689-5.024 22.486.558 48.845 12.52 68.151 2.435 3.587 5.063 6.814 8 10l2.34 2.582c16.565 17.455 41.011 26.638 64.76 27.535 8.433.192 16.868.196 25.303.2l11.525.033 19.915.047 28.793.068 46.726.113 45.361.104 2.829.007 14.054.037L1625 1118l.207 23.446.095 10.889.078 10.523.074 5.935c.002 8.327-.746 13.967-6.383 20.414l-1.945 1.605-1.93 1.645c-5.31 3.732-9.685 4.984-16.121 4.929l-2.376.016c-2.631.014-5.261.007-7.892-.001l-5.711.021-15.704.014c-5.644-.001-11.289.016-16.933.03l-33.179.035-26.967.017-63.999.039h-2.067l-10.373-.001h-2.081-4.166c-21.604-.002-43.209.021-64.813.062l-72.822.069c-12.852-.001-25.704.007-38.556.04l-32.827.013a2612.13 2612.13 0 0 0-16.749.016c-5.113.024-10.225.019-15.337-.007-1.848-.005-3.696.001-5.544.018-9.778.083-18.275.135-25.978-6.766-5.479-5.947-8.248-11.653-8.254-19.883l-.018-3.521.012-3.847-.012-4.12-.004-11.356-.014-12.342-.016-21.643-.022-32.184-.039-64.173v-3.358l-.001-3.365-.016-36.889-.039-111.387v-3.6l-.001-14.442-.001-10.871v-3.628l-.061-112.886-.065-126.773v-13.513-3.361l-.042-53.591-.012-53.842-.023-32.001.004-21.368-.01-12.18.009-11.087-.032-5.853c.076-7.625 1.153-13.633 5.659-19.935 6.309-5.971 12.118-8.307 20.811-8.254z" fill="#050914"/><path d="M1459.375 464.813c11.967 10.221 20.489 24.497 21.805 40.358.992 17.128-2.615 32.373-14.12 45.562-13.875 15.27-30.787 23.252-51.283 24.575-19.687.831-38.523-6.146-53.5-19.023-7.642-7.669-13.391-15.714-16.277-26.285l-1.074-3.215c-1.119-4.575-1.269-8.782-1.238-13.473l.017-2.684c.306-16.6 6.658-30.742 18.295-42.629 27.321-23.708 68.361-25.08 97.375-3.187z" fill="#e62729"/><path d="M1096.05 237.612l7.58-.016 16.415-.007 24.411-.01 43.61-.017 38.164-.002 5.126-.002 7.726-.003 71.787-.008 2.731.001 21.954.008 85.642-.021 96.3-.032 10.272.002h2.555l38.133-.019 43.375.002 24.252-.009 18.137.015 7.316-.01c26.412-.105 48.494 5.152 68.276 23.704 15.523 16.178 21.674 37.982 21.565 59.891l.013 4.826-.005 13.231.01 14.406.003 25.239.004 37.532.006 67.037-.006 58.674.001 3.931.003 15.796.005 44.157v2.031l-.009 64.067-.001 2.099-.011 33.74.001 133.776.011 33.706v2.096l.008 63.987v2.03l-.006 46.096-.003 15.772v3.923l.008 58.625-.01 66.676.002 37.309-.011 24.933.001 14.198-.01 12.942.007 4.628c.116 25.006-5.445 46.21-23.389 64.458l-2.082 2.121c-14.343 13.651-33.113 20.227-52.686 20.131l-3.159.009c-3.487.007-6.973 0-10.46-.007l-7.584.009-16.478.002c-8.168-.008-16.336-.004-24.504.002l-43.769.004-38.309-.004h-2.567l-10.318.002c-32.263.006-64.526.001-96.789-.01-28.654-.009-57.308-.009-85.962.001l-96.6.009-10.302-.002h-2.562c-12.758-.002-25.517 0-38.275.005-14.512.006-29.024.004-43.536-.007-8.118-.006-16.236-.006-24.354.001a7594.41 7594.41 0 0 1-18.197-.01c-2.451-.002-4.902-.001-7.352.004-26.366.048-48.008-3.143-68.018-21.953-9.965-10.112-16.283-21.627-20.137-35.309l-.645-2.09c-1.792-5.893-2.48-11.498-2.483-17.646l-.005-1.989.001-6.605-.006-4.801-.003-13.247-.009-14.392-.01-28.57-.014-34.211-.027-82.695-.01-39.113-.027-131.766v-6.298l-.001-12.631-.001-14.787v-4.232l-.042-135.908-.037-97.656v-2.029l-.004-46.081-.001-15.767v-3.922l-.027-62.503-.01-62.815-.015-37.323.001-24.935-.007-14.205.005-12.942-.008-4.634c-.065-12.899 1.059-25.718 6.697-37.517l.935-2.021L1011 277l1.367-2.809c7.33-13.554 20.517-23.594 34.258-29.941l1.788-.855c15.016-6.541 31.63-5.826 47.637-5.783zm-20.724 4.153l-3.44.184c-6.657.48-11.08 1.79-16.886 5.051-2.038.376-2.038.376-4.125.563-11.539 1.303-21.056 11.743-28.238 20.23-4.884 6.146-7.277 10.545-8.637 18.207l-1.906.918c-2.964 1.532-3.248 3.143-4.281 6.27-3.975 13.566-3.092 28.705-3.375 42.75l-.063 3.032-.497 56.029-.01 6.331v11.991l-.006 3.562c.019 7.005.341 13.931.913 20.914.532 7.532.349 15.046-.035 22.579l-.147 2.991-.323 5.702c-.302 5.818-.226 11.528.07 17.342.816 16.168.81 32.331.796 48.514l.001 12.139-.005 20.321.002 23.395.003 20.252.002 12.026-.005 11.279.004 6.047-.009 3.719-.001 3.179c-.106 3.135-.338 6.201-.626 9.322-.569 6.568-.639 13.088-.627 19.677l-.005 3.901.001 10.644-.004 11.566v22.794 18.791 2.729l-.001 5.503.008 64.284.006 21.111.001 3.008v3.009l.398 294.898.069 25.117.103 30.087.049 14.947.057 13.461.011 4.784c-.007 8.512.478 16.81 1.712 25.24l.326 2.365c.856 5.289 2.53 8.96 5.397 13.484.716 1.529 1.409 3.069 2.063 4.625 1.433 3.287 2.853 6.437 4.938 9.375h2v3h2l.813 2.813c1.368 3.696 1.368 3.696 4.187 6.188l3.063 1c2.938 1 2.938 1 4.938 4h4v2l3 1 1 2c2.195 1.038 2.195 1.038 4.875 1.938l2.68.965L1055 1308l2.315.74c7.017 2.091 13.549 2.788 20.848 2.94l3.426.1c11.599.313 23.197.36 34.799.347l6.999.005 18.987-.001 18.452.003 40.012.002 35.021-.002h2.356l9.47.001 88.658-.005h78.579l88.497.004 9.454-.001h2.351l34.975.003 39.817-.003h20.28c39.174 3.472 39.174 3.472 76.705-2.133 1.352-.129 2.707-.229 4.063-.312 5.201-.519 9.289-2.413 13.938-4.687l5-2v-2l2.375-.437c2.589-.44 2.589-.44 4.625-1.562v-2h2l3.652-4.363c1.954-2.373 4.175-4.464 6.348-6.637 5.523-5.838 5.523-5.838 9-13l2-1c.925-2.35 1.738-4.66 2.5-7.062l.645-1.951L1745 1257l1.113-3.656c1.4-5.839 1.411-11.805 1.574-17.781l.061-2.009c.537-18.231-.036-36.463-.495-54.69-.344-13.805-.182-27.49.479-41.285.243-5.723.097-10.902-.732-16.578l.471-3.246c.892-6.628.603-13.325.535-19.997l-.034-4.626-.082-9.938-.125-15.803-.312-39.301-.238-30.466-.106-13.091c-.155-16.952-.193-33.849.515-50.791.471-11.33.52-22.645.508-33.984l.004-6.631-.008-17.418-.005-10.884-.763-78.211c-.745-28.479-.118-56.985.276-85.465l.167-12.712.132-8.854.071-5.422.044-2.422c.04-3.619-.085-7.015-.549-10.618-.745-6.486-.622-12.978-.594-19.497l.006-4.357.022-9.438.034-15.361.048-22.305.059-35.288.015-12.087.004-3.051.049-34.356.005-3.171.105-50.841.081-52.262.067-32.198.032-22.087.029-12.723.012-11.679.018-4.193c.069-7.559-.527-14.699-2.211-22.056l-.445-2.084c-.503-2.178-.503-2.178-1.838-5.087-2.499-1.365-2.499-1.365-5-2-.82-2.207-.82-2.207-1.125-4.812-.633-4.022-1.178-6.991-3.875-10.187l-5-2c-1.476-2.287-2.135-4.404-3-7l-6 2 .125-3.062c-.405-2.844-1.045-3.857-3.102-5.926-5.737-4.29-9.939-5.674-17.023-6.012l-1-2-2 1v-2l-7 1-1-3c-6.57-1.162-13.097-1.239-19.758-1.352l-3.701-.07-7.721-.136-11.817-.224-7.512-.133-3.567-.072-3.328-.051-2.917-.051c-2.658.001-2.658.001-5.092.654-3.374.567-6.216-.036-9.588-.565a202.5 202.5 0 0 0-7.217-.129l-2.072-.005c-2.238-.004-4.476-.001-6.714.002l-4.702-.003c-3.276-.001-6.551.001-9.827.005-4.188.006-8.377.002-12.565-.004-3.233-.004-6.467-.002-9.7 0a2383.36 2383.36 0 0 1-4.632-.002c-2.161-.003-4.321.001-6.482.007l-3.718.002c-3.313.052-3.313.052-6.316.627-3.683.603-7.289.64-11.009.629l-2.348.005c-2.553.004-5.105.001-7.658-.002l-5.375.003c-3.757.001-7.515-.001-11.272-.005a5852.36 5852.36 0 0 0-14.314.004c-3.705.004-7.41.002-11.114 0-1.756-.001-3.513 0-5.269.002a2285.59 2285.59 0 0 1-7.446-.007l-2.121.006c-4.855-.019-9.665-.297-14.508-.635-7.847-.514-15.664-.644-23.529-.634l-4.275-.007-11.598-.005c-4.19 0-8.38-.005-12.569-.01l-24.574-.012-20.008-.006-56.897-.013h-3.091-3.095c-16.525 0-33.049-.009-49.574-.023l-51.069-.02c-9.535 0-19.069-.002-28.604-.013l-24.369-.004c-4.131.003-8.262.003-12.393-.005-15.235-.03-30.435.079-45.645 1.017z" fill="#d12f32"/><path d="M1590.909 234.936l18.484-.031 2.516-.004 12.117-.016 24.585-.053 17.763-.029 7.029-.02 9.336-.013 2.712-.021 2.468.009 2.114-.005c2.317.291 3.945 1.106 5.967 2.247v2l3-1c7.131 1.4 12.402 3.439 16.688 9.383 1.981 2.441 4.448 3.458 7.313 4.617v2l2.375.188L1728 255c.717 1.646 1.383 3.314 2 5 2.017 1.344 2.017 1.344 4 2v2h2v2l1.875.297C1740 267 1740 267 1742 270.246l2 4.191 1.055 2.197c3.31 6.965 6.488 13.764 7.945 21.366l1.063 3.438c1.303 5.03 1.042 10.034.91 15.195-.064 3.297-.064 3.297.521 6.221.485 3.013.636 5.802.639 8.849l.004 3.223-.012 3.324.012 3.277-.004 3.238-.003 2.899c-.104 2.686-.33 5.272-.629 7.938-.627 5.995-.644 11.952-.633 17.975l-.003 3.546.005 7.372-.006 11.27.004 7.188-.006 3.39c.015 5.031.264 9.693 1.139 14.656l-1 3 .5 1.875c.5 2.125.5 2.125.039 4.266-.677 3.589-.684 7.097-.664 10.734l-.012 2.066c.006 3.392.204 6.508.707 9.879.43 3.18.43 3.18-.57 6.18-.097 3.041-.136 6.058-.129 9.099l-.005 2.825.002 9.28-.003 6.471.005 13.598-.004 17.318v13.389l-.002 6.377c-.009 10.593.058 21.105.971 31.663.155 2.795.02 5.334-.335 8.105-.617 5.285-.363 10.392-.062 15.688.427 7.711.704 15.402.75 23.125l.039 2.779c.008 4.839-.333 8.741-2.226 13.284l2 1-2 19 2 1-.5 1.625c-.778 3.696-.788 7.129.063 10.813.438 2.563.438 2.563-.066 5.359-.923 5.962-.294 12.019.004 18.016l.344 7.332.162 3.261C1756 702 1756 702 1755 704a95.37 95.37 0 0 0-.133 5.199l-.004 3.166.012 3.322-.012 3.264c-.002 6.591-.002 6.591.707 13.131C1756 735 1756 735 1755 738a73.58 73.58 0 0 0-.129 4.452l-.01 2.722.006 2.936-.003 3.031.005 6.355-.006 9.685.004 6.18-.006 2.911c.017 5.014.327 9.767 1.139 14.73.088 2.353.13 4.708.125 7.063l.008 3.535c-.133 3.402-.133 3.402-.703 6.711-.692 2.653-.692 2.653.57 4.691.132 3.9.101 7.371-.518 11.229-.46 3.601-.499 6.855-.326 10.474l.16 3.719.184 3.828.344 7.578.162 3.372C1756 856 1756 856 1755 859a66.88 66.88 0 0 0-.133 4.246l-.006 2.52.013 2.672.004 2.736c.033 5.716.372 11.324.95 17.011.156 2.567.028 4.777-.293 7.319-.916 9.261-.679 18.579-.668 27.875l-.003 6.29.005 13.175-.003 16.651c-.103 29.224-.103 29.224.872 58.427l.145 2.738.14 2.284c-.024 2.056-.024 2.056-.544 3.934-.657 2.908-.313 5.452-.032 8.416.564 7.02.603 13.94.443 20.978l-.125 6.256-.265 13.223-.304 15.466-.131 6.159-.071 3.745-.07 3.304c-.106 2.564-.106 2.564 1.076 4.576a286.05 286.05 0 0 1-.5 8.938c-.393 6.286-.507 12.262.238 18.531.676 6.541.411 13.055-.245 19.583-.644 7.652-.591 15.272-.538 22.945l.036 7.942.105 22.555.055 13.872.03 5.23c.113 14.217.152 28.345-6.181 41.405l-1.5 3.188c-8.143 15.269-18.082 30.403-35.5 35.813l-3.125 1.875c-4.173 2.504-8.679 3.837-13.301 5.293-2.526.745-2.526.745-4.574 1.832-1.413.092-2.829.123-4.245.121l-2.721.005-3.014-.01-3.196.001-10.728-.014-7.719-.003-19.072-.02-22.834-.022-55.208-.062-26.117-.032-89.393-.116-5.615-.008-5.628-.008-11.292-.017-2.828-.004-90.732-.103-95.913-.114-10.533-.016-2.62-.004-41.716-.04-41.954-.058-24.912-.025a5349.94 5349.94 0 0 1-18.625-.035l-7.519-.002c-32.794.053-32.794.053-47.866-9.412l-2.687-1.547c-4.82-2.783-9.264-5.617-13.312-9.453v-2h-2c-5.82-5.911-9.973-12.151-12.93-19.883-.933-2.463-.933-2.463-4.07-3.117-2.221-3.974-2.176-7.521-2-12h-2c-3.631-14.93-3.408-29.876-3.334-45.147l.012-11.379.035-19.7.047-28.678.068-46.801.082-44.983.004-2.78.039-30.292.003-2.721.012-10.798.051-31.138.046-26.665.003-2.332-.327-51.319-.037-2.145-.437-21.918-.075-3.568-.154-6.501c-.115-5.509.175-10.681.961-16.133-.087-2.804-.087-2.804-.437-5.551-.557-6.177-.645-12.292-.625-18.492l.01-2.978.053-9.166.063-12.23.025-2.828.01-2.602.016-2.29c.003-1.955.003-1.955-1.114-3.861l1-2c.073-1.875.084-3.753.063-5.629l-.023-3.385-.039-3.549-.062-6.941-.035-3.119C996 768 996 768 997 767c.081-1.505.092-3.014.076-4.521l-.026-2.963-.044-3.28-.034-3.435-.082-7.427-.125-11.815-.312-29.411-.238-22.741-.151-13.531c-.129-12.323-.064-24.578.659-36.884l.149-2.668.146-2.323c.081-2.211.081-2.211-1.019-5-.096-2.298-.131-4.599-.133-6.898l-.003-2.036.005-4.262-.006-6.491.004-4.148.003-3.798c.129-3.366.129-3.366.63-5.765.499-2.599.619-4.93.611-7.572l-.001-2.975-.017-3.246-.006-3.466-.037-11.526-.019-8.254-.048-17.795-.059-28.168-.015-9.647-.004-2.435-.049-27.443-.005-2.534-.105-40.568-.081-41.708-.067-25.689-.032-17.643-.029-10.153c-.215-35.499-.215-35.499 8.311-47.162 1.39-1.83 1.39-1.83 2.652-5.117 2.271-5.298 5.072-10.685 9.5-14.5h2v-2c2.958-2.747 5.434-4.723 9.063-6.5 3.059-1.364 3.059-1.364 5.313-3.937 3.219-3.143 6.541-4.832 10.625-6.562l2.823-1.267c10.284-4.18 19.674-4.441 30.673-4.373l5.85-.025h15.991l17.304-.026 30.047-.023 31.767-.013 2.011-.003 10.122-.016 71.838-.058 68.723-.043 2.112-.003 21.049-.026 43.71-.051 2.061-.002 101.917-.052 88.912-.084zm-571.468 29.275c-3.481 3.977-6.075 8.077-8.441 12.789l-1.328 2.613c-5.404 11.247-8.795 22.724-8.798 35.25l-.005 1.994.002 6.603-.005 4.808-.001 13.251-.006 14.401-.006 25.253-.008 37.553-.013 70.967-.006 54.798-.003 15.763-.001 3.958-.01 110.249v4.2 18.964 8.456 4.233l-.021 133.835-.01 33.719-.001 2.097-.011 63.992v2.029l-.001 46.085v15.768 3.922l-.015 62.53-.003 62.825-.008 37.339.002 24.934-.003 14.211.004 12.937-.005 4.643c-.041 12.706.873 24.189 6.257 35.821l1.43 3.277c8.889 19.246 24.12 32.979 43.855 40.727 9.759 3.581 19.045 4.146 29.351 4.13l3.153.007 10.457.006 7.575.011 18.632.016 22.325.02 53.949.04 25.531.015 87.428.04 5.486.001 2.748.001 13.782.004 2.763.001 88.679.064 93.8.057 10.301.001h2.562l40.774.038 41 .016 24.339.023 18.202-.005 7.343.014c16.151.073 31.414-.444 45.973-8.318l2.01-1.051c5.321-2.855 10.08-6.06 14.552-10.136l2.445-2.168c15.697-14.713 22.676-33.197 23.74-54.555l.069-12.492.01-4.834-.001-13.239.009-14.42.006-25.258.009-37.56.014-70.982.004-54.804.002-7.873.003-11.864.009-110.297v-2.099l-.003-23.175v-2.113l-.001-8.461.021-133.857.014-33.736.001-2.098.014-64.025v-2.03l-.001-46.106-.001-15.774v-3.923l.016-58.671.001-66.704.009-37.339-.006-24.933.004-14.211-.007-12.936.008-4.642c.1-20.825-6.499-41.156-21.043-56.476L1728 260l-2.156-2.156c-14.594-13.748-33.78-20.19-53.587-20.098l-3.152-.01c-3.478-.008-6.956-.002-10.434.003l-7.565-.012-16.437-.006c-8.148.005-16.296-.001-24.443-.009l-46.202-.014c-11.895.002-23.79 0-35.685-.004l-5.129-.002-7.729-.003-71.858-.009h-2.736l-13.728.003-2.754.001-5.513.001c-28.587.005-57.173-.003-85.76-.021l-96.385-.027-10.283.001h-2.557c-12.727.001-25.454-.005-38.181-.016l-43.441-.001a9723.73 9723.73 0 0 1-24.292-.009c-6.056-.009-12.111-.003-18.167.01a1679.2 1679.2 0 0 1-7.328-.008c-29.249-.089-52.058 4.911-73.056 26.597z" fill="#1a0309"/><path d="M1126 375h1l.001 2.106.116 226.894.003 3.422.059 73.629.03 36.106.003 3.629.062 116.507.079 119.704.017 16.899.003 3.36.02 53.587.041 53.844.011 32.008.023 21.37.003 12.183.017 11.087-.02 5.86c.076 8.552 1.786 14.326 6.222 21.555 8.744 8.508 18.386 7.96 29.874 7.885l5.721.024 15.689-.005 16.933.02 33.159.003 26.948-.007 3.874.002 7.791.005 70.977-.027 64.774.002 72.798.022 7.762-.005 3.858-.002 26.917.015 32.802-.016 16.736-.002 15.322-.02 5.541.009c11.229.068 18.83-.691 27.711-8.028 5.937-7.334 5.592-14.537 5.637-23.652l.054-4.073.103-10.658.121-10.9L1625 1118l-1.995.002-117.193.1-14.088.008-2.833.002-45.343.043-46.566.034-28.707.028-19.716.011a3559.09 3559.09 0 0 0-11.356.011c-37.898.103-37.898.103-50.766-4.863l-2.104-.78c-10.971-4.214-21.558-9.703-30.334-17.595l-2.672-2.391c-10.286-9.718-17.836-21.115-22.328-34.609l-1.187-3.473c-2.906-9.576-3.184-19.147-3.187-29.09l-.005-3.929c.068-5.765.38-10.885 1.87-16.441.859-3.48 1.278-7.017 1.772-10.563 1.588-10.63 4.123-20.979 6.75-31.393l3.245-13.013 1.593-6.409 5.525-23.126.675-2.952L1248 909c5.799-25.643 5.799-25.643 9-36.312 1.635-6.029 2.89-12.142 4.162-18.257a260 260 0 0 1 4.041-16.526c1.51-5.505 2.859-11.052 4.234-16.592l1.746-7.012.892-3.592 1.92-7.639a801.2 801.2 0 0 0 5.49-23.129c5.196-23.429 11.223-46.647 17.193-69.887l7.814-31.62.699-3.029 1.344-6.039c1.762-7.461 4.034-12.445 10.551-16.74 6.88-3.745 12.588-4.333 20.337-4.241l3.64-.017 9.793.026 10.289.012 17.258.052 19.921.039 19.225.024 8.157.009 11.388.05 3.401-.009c11.198.123 11.198.123 15.505 4.429-.032 8.232-2.323 16.31-4.25 24.25l-1.425 5.964-.955 3.994-2.874 12.608-.677 3.091-1.221 5.705c-.47 2.144-1.025 4.269-1.599 6.388l-2 1 .813-5.75.457-3.234c.898-5.415 2.366-10.704 3.73-16.016l3.125-12.562.801-3.17c3.324-11.224 3.324-11.224 2.074-22.268-2.968-.989-4.941-1.137-8.039-1.161l-3.156-.03-3.462-.018-3.647-.03-11.981-.07-2.062-.01-19.275-.074-24.604-.133-17.325-.079-10.333-.06-11.553-.032-3.419-.061c-7.603.069-13.318 1.682-19.144 6.758-2.715 3.955-3.837 7.584-4.937 12.25l-.499 2.094-1.034 4.396-1.639 6.807-1.078 4.453-.506 2.063c-1.1 4.63-1.784 9.205-2.307 13.937h-1l-2 11h-2l-.078 3.551c-.258 8.031-.649 15.013-3.809 22.492-3.419 9.081-4.938 19.052-6.176 28.645-.649 5.033-1.797 8.752-3.937 13.313-.374 2.327-.708 4.661-1 7l-.949 3.301c-.983 3.461-1.671 6.847-2.301 10.387-2.193 11.255-5.243 22.746-9.75 33.313h-2l-.375 3.813c-1.698 15.261-1.698 15.261-3.625 17.188l-.5 3.5c-.5 3.5-.5 3.5-1.5 4.5a73.78 73.78 0 0 0-.914 3.895l-.528 2.471L1259 875l-2.375 10.688-.655 2.93c-1.221 5.37-2.588 10.624-4.22 15.883-1.674 5.613-2.138 10.818-2.414 16.648-.405 4.645-1.247 9.106-2.211 13.664l-.49 2.352c-.832 3.798-1.81 7.447-3.107 11.113-1.965 5.698-2.986 11.559-4.09 17.473l-1.254 6.609-.545 2.921c-.639 2.723-1.563 5.142-2.638 7.72-2.147 8.135-3.364 16.154-3.789 24.551C1231 1010 1231 1010 1230 1011c-.221 4.056-.186 8.117-.185 12.179l-.039 6.063c-.016 11.133.25 23.51 5.225 33.758l2 1c.847 2.556 1.472 5.138 2.121 7.75l.879 2.25 3 1v3h2c1.461 2.647 2 3.894 2 7l1.75.75c2.599 1.444 4.328 2.985 6.25 5.25v3h5l1 2c1.717.945 1.717.945 3.75 1.813 2.901 1.376 4.33 2.274 6.563 4.688 4.006 3.727 8.511 4.938 13.688 6.5l2.785.844c15.033 4.136 29.931 4.362 45.414 4.171l3.664-.042 3.29-.054c2.503.072 4.447.466 6.846 1.082l5.631-.733c4.669-.525 9.363-.412 14.056-.392l3.209.004c6.684.033 13.26.282 19.908 1 2.24.305 2.24.305 4.195-.879 1.357.089 2.71.244 4.057.429 7.657.852 15.331.715 23.025.704l4.985.003 10.431-.005 13.178.003c23.307.093 23.307.093 46.589-.872 3.267-.213 5.591-.309 8.734.738 1.361.091 2.726.131 4.09.133l2.377.004 2.471-.012 2.459.012 2.381-.004 2.164-.003c2.095-.064 2.095-.064 4.198-.7C1527 1114 1527 1114 1529 1115a75.79 75.79 0 0 0 4.613.133l2.783.004 2.916-.012 2.881.012 2.795-.004 2.548-.003c2.571-.135 4.945-.618 7.464-1.129 2.066.108 4.13.279 6.188.5 5.081.46 9.685.34 14.73-.312 2.514-.226 4.635.253 7.082.813l2.324-.5c2.803-.524 4.862-.377 7.676 0 5.466.593 10.599.246 16.055-.344 2.898-.154 5.139.169 7.945.844l3.563.5c3.438.5 3.438.5 7.438 1.5v61h-2l-.078 1.758c-.397 5.465-1.171 9.01-4.922 13.242-2.556 1.889-5.204 3.493-8 5l-1.937 1.078c-4.76 2.128-9.652 2.065-14.781 2.049l-2.345.005c-2.602.004-5.204.001-7.806-.002l-5.642.005c-5.176.004-10.352.003-15.528 0-4.438-.002-8.875 0-13.313.002-15.894.007-31.788-.001-47.681-.011l-3.801-.002-72.667-.066-18.467-.024-2.061-.003-66.144-.019c-23.317.012-46.634-.001-69.952-.043l-38.123-.012a6443.13 6443.13 0 0 1-32.466-.028l-16.561-.003c-5.058.021-10.115.01-15.173-.027-1.826-.008-3.652-.004-5.477.014-11.343.099-18.582-1.082-28.074-7.912l-1.947-.901c-3.906-2.091-6.123-5.161-8.053-9.099-.852-4.516-.797-8.944-.741-13.53l-.022-4.138.023-11.377-.006-12.375.017-21.69.026-32.253.038-54.258.057-53.736.001-3.374.003-16.965.096-120.193.103-116.742.002-3.633.012-28.937.075-124.76.015-20.173.071-74.048.031-29.238.028-24.225.013-12.208.015-11.091.001-5.898.011-3.513.004-3.033A26.51 26.51 0 0 1 1126 375z" fill="#c7373b"/><path d="M1163.695 355.379l5.728-.019 15.694.017 16.943-.008 33.17.019 38.623.02 70.986.054 64.795.038 4.162-.001 2.078-.001 10.358-.003 2.064-.001 54.16.02 3.888.003 7.732.006 26.93.006 32.806.032 16.742.013 15.32.023 5.547-.001 7.532.02 2.182-.02c6.382.076 11.68 1.951 16.554 6.153l1.637 1.359c5.568 6.282 6.255 11.374 6.171 19.51l.015 3.221-.022 10.722.012 7.75-.01 16.868-.015 25.082-.022 42.194-.035 41.782v2.624l-.001 10.544-.06 96.096-.062 90.778-.001 2.826-.004 14.091-.001 2.809-.001 5.606-.041 89.18-.014 26.131-.042 54.956-.019 22.736-.021 20.776-.004 7.552-.013 10.193.004 3.025-.01 2.716-.002 2.358C1625 997 1625 997 1624 998a233.57 233.57 0 0 1-8.677.14l-2.792.009-9.339.012-6.666.015-18.168.024-11.347.012-31.417.026h-2.033l-2.038.001-4.088.001-2.048.001-32.815.045-33.694.037-18.916.025-17.808.01a1333.32 1333.32 0 0 0-6.529.013c-2.977.013-5.953.007-8.93-.004l-2.595.024c-6.957-.057-13.048-1.469-18.973-5.204-3.752-3.862-5.298-7.338-5.5-12.687.508-12.368 4.626-24.876 7.563-36.875l1.115-4.578L1391 928h1c-.286 12.345-.602 24.07-4 36l-.469 2.461c-.531 2.539-.531 2.539-1.617 5.422-1.056 3.602-.919 6.272-.539 9.992l.336 3.492L1386 988h2v2c6.301 2.471 11.789 3.447 18.535 3.448l2.755.036 8.987.063 6.386.062 13.433.1 16.81.138c22.938.227 45.837.176 68.768-.471 18.586-.515 37.167-.491 55.758-.444l13.825.02L1620 993c.72-3.241 1.125-6.24 1.124-9.558l.007-2.701-.008-2.945.003-3.159-.006-10.548.003-7.611-.004-16.583-.005-24.658-.008-41.477-.011-41.075v-2.578l-.001-12.963-.018-91.851-.021-89.239v-2.778l-.004-27.617-.008-56.261v-2.613L1621 374h-2l-.375-2.937L1618 368l-2-1v-2l-1.937-.75c-2.062-1.25-2.062-1.25-2.691-3.328L1611 359l-176.44-.153-20.826-.012-2.093-.001-67.159-.063-70.979-.053-42.517-.041-29.148-.017c-5.607.002-11.214-.001-16.822-.017l-15.404-.005c-1.856.001-3.712-.003-5.568-.012-12.337-.17-12.337-.17-24.224 2.829C1138 362 1138 362 1135 361c8.918-6.247 18.297-5.698 28.695-5.621z" fill="#170309"/><path d="M1338.996 644.43c12.355.779 24.708.721 37.083.701l11.938.006c17.523.004 17.523.004 35.019-.875 1.652-.121 3.308-.197 4.963-.262l1 1a209.9 209.9 0 0 0 7.5 0c16.043-.092 16.043-.092 20 2.875 2.585 3.662 2.636 6.702 2.625 11.063l.008 3.152c-.115 2.527-.424 4.505-1.133 6.91l-.543 2.207-3.953 15.414-.81 3.05-1.625 6.055c-1.445 5.448-2.465 10.674-3.07 16.274-2.376 13.856-2.376 13.856-4.625 19.5-1.518 3.456-1.518 3.456-1.875 7.188-.5 3.313-.5 3.313-1.969 5.66-1.687 2.923-2.108 5.073-2.531 8.402a63.26 63.26 0 0 1-3.207 12.75c-1.397 4.404-2.228 8.937-3.145 13.461C1430 782 1430 782 1429 785h-2v3h-2c.402-5.629 1.393-10.84 2.797-16.309l1.089-4.287.562-2.211 2.552-10.448.499-2.072 2.001-8.323 5.609-22.266c1.511-5.61 2.895-11.225 4.141-16.898l4.848-20.949 1.106-4.62 1.662-6.891 1.559-6.477.919-3.797c.617-3.251.782-6.155.655-9.453-5.727-3.741-11.218-3.437-17.905-3.42l-3.619-.026-9.794-.023c-2.733 0-5.466-.008-8.2-.017l-19.364-.015c-6.638.007-13.276-.016-19.914-.053l-17.147-.038a1304.64 1304.64 0 0 1-10.219-.028c-3.806-.022-7.61-.012-11.415.005l-3.376-.04c-7.942.085-14.54 1.807-20.694 7.062-3.198 3.485-4.387 7.088-5.45 11.617l-.488 2.012-1.477 6.34-.986 4.137-1.98 8.376-8.397 33.491-17.961 73.859c-1.396 6.29-3.009 12.522-4.613 18.762l-2.5 10-3.566 14.195a592.67 592.67 0 0 0-4.871 20.68c-1.243 5.736-2.665 11.368-4.312 17-3.138 10.812-5.421 21.835-7.808 32.832-1.971 9.066-4.087 18.076-6.377 27.067-8.576 32.962-8.576 32.962-14.98 66.387-.586 3.84-.586 3.84-1.105 5.689-5.024 22.486.558 48.845 12.52 68.151 2.435 3.587 5.063 6.814 8 10l2.34 2.582c16.565 17.455 41.011 26.638 64.76 27.535 8.433.192 16.868.196 25.303.2l11.525.033 19.915.047 28.793.068 46.726.113 45.361.104 2.829.007 14.054.037L1625 1118l.207 23.446.095 10.889.078 10.523.074 5.935c.002 7.228-.438 12.116-4.453 18.207-1.91 1.9-3.81 3.407-6 5 .506-2.169 1-4 2-6h2v-3h2l-.062-2.437C1621 1178 1621 1178 1622 1177c.094-1.688.117-3.38.114-5.071v-3.276l-.016-3.564-.004-3.628-.031-11.525-.014-7.791L1622 1123l-48.122-.443-22.355-.205-19.534-.177-10.298-.095c-15.257-.156-30.456-.029-45.703.547-12.608.466-25.202.519-37.817.506l-7.372.003c-5.106.001-10.211-.001-15.317-.005-6.406-.006-12.813-.002-19.219.003-23.774.018-47.543-.022-71.311-.579l-2.615-.059c-24.226-.564-24.226-.564-30.151-3.246-3.839-1.673-7.693-3.184-11.625-4.625-5.361-2.04-10.272-4.502-15.223-7.391-2.239-1.313-2.239-1.313-4.523-1.719C1259 1105 1259 1105 1257 1102v-3l-3-1v-2l-1.715-.832c-11.062-5.654-11.062-5.654-13.348-10.918-.937-3.25-.937-3.25-.937-5.25l-1.812-.687c-2.82-1.692-3.783-3.364-5.187-6.312v-4h-2l-2.312-6.25-1.301-3.516c-3.409-10.068-4.941-19.406-4.887-30.047l.011-3.886c.121-9.805 1.176-19.378 2.739-29.052l.619-3.87c1.136-6.458 2.658-12.262 5.27-18.275 1.442-3.525 1.797-7.107 2.271-10.854.59-2.25.59-2.25 3.59-4.25.599-2.512 1.026-4.889 1.375-7.437 1.016-6.569 2.414-12.907 4.188-19.312 2.292-8.373 4.47-16.806 4.418-25.543C1245 903 1245 903 1246 902l1.375-8.5c.905-5.761 1.942-11.159 4.008-16.633.656-1.984.915-3.791 1.117-5.867.285-2.905.891-5.376 1.875-8.125 1.333-3.755 2.213-7.469 3-11.375 1.069-5.224 2.419-10.287 4-15.375 2.514-8.139 4.234-16.39 5.837-24.751.858-4.373 1.742-8.54 3.377-12.694 1.323-3.452 1.935-6.34 2.348-9.992.579-4.19 1.354-7.831 2.938-11.75 2.385-6.037 3.48-12.218 4.688-18.57 3.286-17.217 3.286-17.217 5.437-19.368.321-1.743.588-3.495.832-5.25l.482-3.285.961-6.836c.901-6.044 2.116-11.158 4.804-16.649 3.378-7.265 4.158-16.162 4.71-24.089C1298 681 1298 681 1299 679h2l.313-3.125c.532-4.063 1.193-8.096 1.938-12.125l.641-3.578c1.32-3.773 2.76-5.071 6.109-7.172h2l.813-1.937C1314 649 1314 649 1317 648l5.77-2.281c5.469-1.762 10.563-1.714 16.227-1.289z" fill="#220207"/><path d="M1590.909 234.936l18.484-.031 2.516-.004 12.117-.016 24.585-.053 17.763-.029 7.029-.02 9.336-.013 2.712-.021 2.468.009 2.114-.005c2.317.291 3.945 1.106 5.967 2.247v2l3-1c7.131 1.4 12.402 3.439 16.688 9.383 1.981 2.441 4.448 3.458 7.313 4.617v2l2.375.188L1728 255c.717 1.646 1.383 3.314 2 5 2.017 1.344 2.017 1.344 4 2v2h2v2l1.84.199c2.16.801 2.16.801 3.539 2.883 2.622 6.048 4.562 11.936 5.945 18.387.589 2.749.589 2.749 2.676 5.531.414 2.918.414 2.918.625 6.188l.227 3.293.148 2.52c-1.846-3.301-2.673-6.523-3.562-10.187-3.748-13.311-10.382-25.245-20.437-34.812l-1.922-1.91c-14.241-13.388-33.593-19.433-52.822-19.344l-3.152-.01c-3.478-.008-6.956-.002-10.434.003l-7.565-.012-16.437-.006c-8.148.005-16.296-.001-24.443-.009l-46.202-.014c-11.895.002-23.79 0-35.685-.004l-5.129-.002-7.729-.003-71.858-.009h-2.736l-13.728.003-2.754.001-5.513.001c-28.587.005-57.173-.003-85.76-.021l-96.385-.027-10.283.001h-2.557c-12.727.001-25.454-.005-38.181-.016l-43.441-.001a9723.73 9723.73 0 0 1-24.292-.009c-6.056-.009-12.111-.003-18.167.01a1679.2 1679.2 0 0 1-7.328-.008c-27.289-.083-49.374 3.857-69.81 23.261-13.181 13.661-20.809 34.134-20.814 52.989l-.005 1.994.002 6.603-.005 4.808-.001 13.251-.006 14.401-.006 25.253-.008 37.553-.013 70.967-.006 54.798-.003 15.763-.001 3.958-.01 110.249v4.2 18.964 8.456 4.233l-.021 133.835-.01 33.719-.001 2.097-.011 63.992v2.029l-.001 46.085v15.768 3.922l-.015 62.53-.003 62.825-.008 37.339.002 24.934-.003 14.211.004 12.937-.005 4.643c-.029 8.793.473 17.189 2.257 25.821l.565 2.832.435 2.168c-4.787-3.931-5.101-10.187-6-16-.395-5.486-.404-10.947-.378-16.442l-.013-4.908.005-13.446-.01-14.643-.003-25.651-.004-38.143-.006-68.121.006-59.606-.001-3.993-.003-16.045-.005-44.851v-2.063l.009-65.065.001-2.131.011-34.264-.001-135.924-.011-34.261v-2.131l-.008-65.009v-2.061l.006-44.794.003-18.022v-3.983l-.008-59.582.01-67.727-.002-37.92.011-25.31-.001-14.433.01-13.127-.007-4.722c-.049-10.859 1.294-18.995 6.389-28.622l1.648-3.473 1.727-3.59 1.711-3.598c1.957-3.415 3.939-5.777 6.914-8.34h2v-2c2.958-2.747 5.434-4.723 9.063-6.5 3.059-1.364 3.059-1.364 5.313-3.937 3.219-3.143 6.541-4.832 10.625-6.562l2.823-1.267c10.284-4.18 19.674-4.441 30.673-4.373l5.85-.025h15.991l17.304-.026 30.047-.023 31.767-.013 2.011-.003 10.122-.016 71.838-.058 68.723-.043 2.112-.003 21.049-.026 43.71-.051 2.061-.002 101.917-.052 88.912-.084z" fill="#400106"/><path d="M1154.758 353.869l2.358-.006 7.85-.003 5.674-.009 15.614-.011 16.831-.016 36.812-.024 22.979-.012 63.607-.026h4.113l4.123-.001 8.271-.001h2.071l66.498-.043 70.312-.04 38.326-.025 32.632-.012 16.651-.011 15.245.001 5.513-.01c18.805-.083 18.805-.083 27.45 4.943 5.446 5.741 9.43 12.473 9.443 20.493l.011 2.438-.003 2.666.009 2.854.011 9.538.015 6.878.027 18.957.031 18.326.06 37.495.056 37.134.004 2.331.02 11.718.131 83.034.125 80.675.004 2.511.041 24.965.083 50.859.004 2.362L1628 930h1l.259 26 .118 12.073.097 11.652.054 4.445.039 6.227.034 3.58c-.601 3.025-.601 3.025-2.962 5.386-2.852 1.772-4.958 2.397-8.264 2.889l-2.852.453c-2.784.328-5.133.378-7.883-.195-2.7-.519-5.145-.635-7.892-.637l-3.111-.01-3.349.006-3.513-.003a3748.16 3748.16 0 0 0-7.389.005 3482.51 3482.51 0 0 1-11.06-.006c-10.869-.003-21.707.082-32.562.637-13.437.68-26.875.652-40.326.63a3370.81 3370.81 0 0 0-10.765.003c-14.362.019-28.691-.123-43.041-.787-10.419-.468-20.818-.391-31.243-.251l-7.273.064-2.172.041c-9.552.047-15.988-3.515-23.383-9.013-2.281-3.194-2.413-6.383-2.562-10.187l-.088-2.062c-.108-5.649.671-10.751 1.901-16.25 1.871-8.804 3.305-17.619 4.574-26.527 1.291-8.838 1.291-8.838 3.613-11.16v-2.375c0-2.942.643-4.062 2-6.625 1.525-4.905 2.605-9.824 3.5-14.875 2.775-15.177 2.775-15.177 4.434-19.633 1.834-6.007 2.596-12.237 3.566-18.434l.5-3.043.438-2.772C1403 857 1403 857 1405 855c.645-2.625.645-2.625 1.063-5.562.84-5.34.84-5.34 1.938-6.437a126.23 126.23 0 0 0 .75-4.25c.766-4.027 1.907-7.54 3.5-11.312 4.862-12.132 7.213-25.24 9.949-37.984l.545-2.523.963-4.625c1.074-5.088 1.074-5.088 3.293-7.306-.443 6.208-1.663 11.973-3.219 17.995-1.573 6.104-3.004 12.235-4.406 18.38l-8.312 35.438-.656 2.756-7.244 30.127-8.163 35.083c-2.583 11.55-5.38 23.035-8.306 34.502l-2.29 9.043-.727 2.882c-3.678 13.942-3.678 13.942-1.113 27.669 3.86 4.949 8.185 7.236 14.438 8.125 3.074.138 6.143.131 9.219.12l2.822.003 9.365-.009h6.711l18.228-.013 19.046-.008 31.971-.018 32.928-.021 2.051-.001 10.185-.004L1624 997l.254-178.376.003-2.666.05-57.363.023-28.13.002-2.828.126-90.752.106-93.251.006-13.168.001-2.618.071-41.737.04-41.948.044-24.929V400.63l.024-7.535-.011-10.227.048-2.967c-.104-7.045-2.151-11.59-6.786-16.901-6.001-5.419-10.927-6.151-18.754-6.123l-2.393-.003c-2.662-.003-5.325.002-7.987.006l-5.764-.003c-5.293-.002-10.585.002-15.878.007l-17.108.002c-9.885-.001-19.769.003-29.654.008l-42.875.012-69.557.018-67.579.021h-2.104l-20.914.004L1142 357v-2c4.264-1.041 8.396-1.142 12.758-1.131z" fill="#a4292d"/><path d="M1191.432 351.972l69.655-.107 21.449.001h3.119l6.28-.001 58.485.006 49.822-.001 58.296-.004 6.257.001h3.107l21.332-.003L1563 352l2.124.01 23.73.208 6.031.061 7.95.117 2.245.002c5.411.152 8.509 1.707 12.92 4.602v2l2.313.688c3.283 1.603 4.047 3.109 5.688 6.313l2 3h1l-.098 5.371c.062 2.818.062 2.818.596 6.338.768 6.839.642 13.697.631 20.569l.005 4.619v12.55l.001 10.626-.005 28.354-.007 20.544-.814 138.295-.117 7.05-.154 8.158c-.123 7.105.19 13.67 1.586 20.65.375 2.875.375 2.875-.094 5.687-.515 3.097-.651 5.935-.644 9.07v3.492l.016 3.788.004 4.023.018 8.638.024 13.667.051 29.01.053 31.322.028 13.578.013 8.454.018 5.772v3.492l.007 3.021c-.127 3.024-.585 5.885-1.12 8.861-.084 1.648-.128 3.298-.129 4.948l-.01 2.821.006 2.993-.003 3.114.005 6.493-.006 9.954.004 6.314-.006 3.011.01 2.792.002 2.455c.048 2.297.048 2.297 1.127 5.105a105.84 105.84 0 0 1 .129 5.395l.01 3.352-.006 3.636.003 3.766-.005 7.924.006 11.962-.004 7.723.006 3.55c-.019 7.102-.313 14.144-.766 21.228-.472 7.592-.597 15.177-.689 22.781l-.063 4.434-.153 11.476-.161 11.788L1628 996h-1l-.002-3.97-.115-173.219-.003-2.649-.059-56.987-.03-27.946-.003-2.809-.062-90.149-.079-92.635-.017-13.082-.003-2.601-.02-41.457-.041-41.672-.011-24.762-.029-18.486.004-7.482-.024-10.164.027-2.939c-.077-6.723-1.635-11.944-4.535-17.989l-1.025-2.219c-1.31-2.393-2.454-2.759-4.975-3.781l-3.562-1.562c-4.936-2.064-8.774-2.579-14.053-2.561l-2.384-.003c-2.659-.003-5.317.002-7.976.006l-5.749-.003c-5.284-.002-10.567.002-15.851.007l-17.074.002c-9.866-.001-19.732.003-29.598.008l-42.795.012-69.426.018-67.454.021h-2.1l-20.873.004L1142 355l1 3-3.625 1.438c-6.833 3.423-10.169 10.073-12.729 17.049-1.343 5.227-1.049 10.613-1.015 15.977l-.01 4.116.013 11.316-.002 12.308.011 21.574.016 32.079.024 53.962.033 53.435.001 3.355.003 16.868.055 119.498.062 116.097.001 3.614.012 35.932.025 73.2.001 3.4L1126 1178c-2.736-2.736-2.361-4.559-2.562-8.375-.167-4.284-.167-4.284-.951-8.472-.599-2.655-.562-5.044-.508-7.766l.061-3.544.082-3.955.108-6.554.122-7.308.732-128.041-.003-7.667-.038-62.192-.033-63.552-.01-26.818-.001-3.006-.033-70.237-.002-3.091-.043-71.67-.002-3.134-.008-12.527-.004-6.256-.004-6.249-.049-103.181-.004-14.547-.001-2.891-.032-45.974-.024-46.044-.021-27.33-.007-18.243-.009-10.393.001-11.194-.017-3.254c.04-9.359.947-17.015 6.823-24.535 8.987-7.374 18.061-7.773 29.238-7.804l5.545-.073 16.719-.111 10.368-.041z" fill="#d22e31"/><path d="M2629 1376c2.693.992 3.781 1.532 5.02 4.18l.793 2.695c5.277 15.667 14.909 26.086 29.188 34.125 4.268 1.881 8.579 3.517 13 5v4l-3.375 1.188c-20.325 7.707-31.578 20.533-40.5 40L2631 1472c-1.926-.734-1.926-.734-4-2-.73-1.891-.73-1.891-1.187-4.25-3.655-13.762-13.856-24.718-25.684-32.055-4.625-2.506-9.436-4.387-14.355-6.238-2.773-1.457-2.773-1.457-3.672-3.633L2582 1422l2.422-.848c19.795-7.226 31.543-17.244 40.556-36.273L2629 1376z" fill="#808288"/><path d="M1134 362c.625 1.875.625 1.875 1 4l-2 2c-.648 2.571-.648 2.571-1 5h-2l-.042 218.948v3.278l-.008 70.547-.004 34.601v3.478l-.021 111.409-.018 114.578-.001 16.219v3.224l-.012 51.182-.007 51.574-.007 30.564-.001 20.515-.003 11.626c-.025 22.101.431 44.168 1.125 66.258l4 1v4h2v3h4l1 3c3.523 2.608 7.481 2.279 11.678 2.252l2.368.009 7.903-.007 5.704.009 15.712-.002 16.931.008 33.183.001 26.962-.003 3.871.001 7.785.002 70.974-.011 64.812.001 72.786.009 7.757-.002 3.856-.001 26.937.006 32.817-.007 16.753-.001 15.324-.008 5.556.004 7.529-.009 2.198.014c4.03-.03 6.92-.721 10.606-2.266l3 1c-5.398 3.163-9.852 4.586-16.172 4.509l-2.383.019c-2.627.017-5.253.005-7.88-.007l-5.716.023-15.69.008c-5.643-.005-11.286.013-16.929.028l-33.158.024c-8.983-.004-17.967 0-26.95.008l-3.873.004-7.79.007-52.31.015-2.066-.001-10.365-.005-2.079-.001-4.163-.002c-21.591-.011-43.182.005-64.774.042l-72.794.055c-12.845-.004-25.69.001-38.535.029l-32.805.002a2612.88 2612.88 0 0 0-16.737.01 1573.35 1573.35 0 0 1-15.326-.013c-1.846-.005-3.693-.001-5.539.015-9.774.079-18.266.125-25.967-6.772-5.479-5.947-8.248-11.653-8.254-19.883l-.018-3.521.012-3.847-.012-4.12-.004-11.356-.014-12.342-.016-21.643-.022-32.184-.039-64.173v-3.358l-.001-3.365-.016-36.889-.039-111.387v-3.6l-.001-14.442-.001-10.871v-3.628l-.061-112.886-.065-126.773v-13.513-3.361l-.042-53.591-.012-53.842-.023-32.001.004-21.368-.01-12.18.009-11.087-.032-5.853c.084-8.424 1.502-15.779 7.659-21.935z" fill="#410206"/><path d="M1126 375h1l.001 2.106.116 226.894.003 3.422.059 73.629.03 36.106.003 3.629.062 116.507.079 119.704.017 16.899.003 3.36.02 53.587.041 53.844.011 32.008.023 21.37.003 12.183.017 11.087-.02 5.86c.076 8.552 1.786 14.326 6.222 21.555 7.001 6.812 14.552 8.402 24.034 8.389l2.345.009 7.808.011 5.643.015 15.529.027 16.738.035 29.007.056 41.94.08 68.042.131 66.104.125 2.058.004 20.46.041L1605 1198v1l-174.86.306-20.642.023-2.075.002-66.556.126-70.346.107-42.135.083-28.89.034a2572.91 2572.91 0 0 0-16.67.034l-15.27.01a474.12 474.12 0 0 0-5.516.024c-10.632.103-18.024-.496-27.041-6.749l-1.933-.888c-3.909-2.104-6.132-5.165-8.067-9.112-.852-4.516-.797-8.944-.741-13.53l-.022-4.138.023-11.377-.006-12.375.017-21.69.026-32.253.038-54.258.057-53.736.001-3.374.003-16.965.096-120.193.103-116.742.002-3.633.012-28.937.075-124.76.015-20.173.071-74.048.031-29.238.028-24.225.013-12.208.015-11.091.001-5.898.011-3.513.004-3.033A26.51 26.51 0 0 1 1126 375z" fill="#bc3f42"/><path d="M1716 251c17.289 9.195 27.003 26.145 32.751 44.382 2.421 8.589 2.67 16.849 2.627 25.696l.013 4.826-.005 13.231.01 14.406.003 25.239.004 37.532.006 67.037-.006 58.674.001 3.931.003 15.796.005 44.157v2.031l-.009 64.067-.001 2.099-.011 33.74.001 133.776.011 33.706v2.096l.008 63.987v2.03l-.006 46.096-.003 15.772v3.923l.008 58.625-.01 66.676.002 37.309-.011 24.933.001 14.198-.01 12.942.007 4.628c.037 8.079-.409 15.842-1.787 23.815l-.378 2.186c-.644 3.396-1.28 5.542-3.224 8.457l1.512-11.22c.467-3.619.614-7.051.615-10.697l.005-2.012-.002-6.663.005-4.85.001-13.369.006-14.529.006-25.479.008-37.888.013-71.598.006-55.281.003-15.901.001-3.993.01-111.214v-4.237-19.13-8.53-4.27l.021-135.021.01-34.021.001-2.116.011-64.557v-2.047l.001-42.491v-19.898-3.956l.015-63.089.003-63.376.008-37.673-.002-25.149.003-14.339-.004-13.046.005-4.689c.026-8.086-.183-15.805-2.257-23.672h-2l-.75-2.875c-.936-3.212-.936-3.212-3.375-4.5L1738 285v-2l-2-1-1-7c-.618-2.797-.618-2.797-2-5-1.654-.697-3.323-1.361-5-2-2.187-2.309-3.765-4.001-4.5-7.125-.703-2.638-2.332-3.336-4.5-4.875v-2l-3-1v-2z" fill="#b03b3e"/><path d="M1029 255l2 1-3 5h-2l-.75 1.75c-1.419 2.555-3.191 4.191-5.25 6.25l-2 4-2 1c-.652 2.025-.652 2.025-1 4h-2l-.551 1.793-.762 2.395-.738 2.355c-.949 2.457-.949 2.457-2.405 4.749-5.487 9.619-4.973 21.352-4.914 32.097l-.01 4.891.013 13.397-.002 14.59.011 25.557.016 38.002.024 63.929.033 63.295.001 3.976.002 15.976.008 44.656v2.054l.047 98.871.02 34.303.001 2.149.039 98.935.002 6.424.012 42.575.024 84.711.001 4.034L1004 1252l-2-1c-.994-4.257-1.126-8.378-1.128-12.736l-.005-1.989.001-6.605-.006-4.801-.003-13.247-.009-14.392-.01-28.57-.014-34.211-.027-82.695-.01-39.113-.027-131.766v-6.298l-.001-12.631-.001-14.787v-4.232l-.042-135.908-.037-97.656v-2.029l-.004-46.081-.001-15.767v-3.922l-.027-62.503-.01-62.815-.015-37.323.001-24.935-.007-14.205.005-12.942-.008-4.634c-.065-12.899 1.059-25.718 6.697-37.517l.935-2.021L1011 277l1.367-2.809c4.127-7.632 10.38-13.303 16.633-19.191z" fill="#b43940"/><path d="M1621 367c3.917 3.747 3.917 3.747 4.125 6.893v2.362l.008 2.728-.007 3.022.004 3.204-.003 10.753.005 7.737.001 16.886.001 25.11.002 44.836-.002 39.234v2.625l.001 10.547-.005 99.017v88.052l.004 98.836-.001 10.528v2.619l.003 39.22-.003 44.574.001 24.974-.005 18.596.002 7.562-.005 10.207.007 3.029-.008 2.72v2.362C1625 997 1625 997 1624 998a233.57 233.57 0 0 1-8.677.14l-2.792.009-9.339.012-6.666.015-18.168.024-11.347.012-31.417.026h-2.033l-2.038.001-4.088.001-2.048.001-32.815.045-33.694.037-18.916.025-17.808.01a1333.32 1333.32 0 0 0-6.529.013c-2.977.013-5.953.007-8.93-.004l-2.595.024c-6.957-.057-13.048-1.469-18.973-5.204-3.752-3.862-5.298-7.338-5.5-12.687.508-12.368 4.626-24.876 7.563-36.875l1.115-4.578L1391 928h1c-.286 12.345-.602 24.07-4 36l-.469 2.461c-.531 2.539-.531 2.539-1.617 5.422-1.056 3.602-.919 6.272-.539 9.992l.336 3.492L1386 988h2v2l5 2v2l152.708 1.486 25.371.169L1623 996l-.244-175.961-.004-2.631-.084-56.602-.041-27.758-.004-2.79-.125-89.525-.132-92.002-.02-12.996-.004-2.584-.055-41.166-.061-41.39-.033-24.588-.03-18.367-.008-7.426-.018-10.102.003-2.904c-.027-6.775-.496-13.465-1.142-20.208zm130-62l2 1 .127 267.887.001 4.005.024 84.062.012 42.229.002 6.37.04 98.064.001 2.129.02 33.982.046 97.904v2.035l.008 42.236.003 19.781v3.932l.035 62.676.02 63.006.022 37.436.003 25.015.009 14.248-.002 12.985.009 4.647c.059 11.329-.774 22.55-4.382 33.373h-2v5l-3 1 .551-1.59c4.5-13.871 5.899-27.668 5.834-42.151l.016-4.859.001-13.252.017-14.454.016-25.299.024-37.618.044-63.288.034-62.648.004-3.937.018-19.795.035-40.247.002-2.034.058-97.867.016-33.949.001-2.127.065-97.941.005-6.361.033-42.154.067-85.87.003-3.988L1751 305z" fill="#3c0003"/><path d="M1005 1262c1.795 2.692 3.111 5.364 4.461 8.293 5.909 12.593 13.885 22.865 25.539 30.707l1.914 1.352c13.724 9.206 28.569 11.808 44.722 11.783l3.153.007 10.457.006 7.575.011 18.632.016 22.325.02 53.949.04 25.531.015 87.428.04 5.486.001 2.748.001 13.782.004 2.763.001 88.679.064 93.8.057 10.301.001h2.562l40.774.038 41 .016 24.339.023 18.202-.005 7.343.014c16.152.073 31.413-.444 45.973-8.318l2.008-1.049c10.914-5.852 21.21-14.381 27.554-25.138 1 3 1 3 .145 4.867-10.773 16.238-23.321 24.146-41.145 31.133l-2.529 1.057c-4.698 1.276-9.098 1.212-13.944 1.182l-3.21.005c-3.568.003-7.135-.009-10.703-.021l-7.73-.001-16.835-.021-25.035-.031-47.318-.061-36.548-.054-5.249-.007-7.91-.01-73.566-.109-2.802-.005-14.062-.025-2.821-.005-5.648-.01-87.833-.12-98.676-.131-10.526-.018-2.618-.004-39.102-.047-44.492-.07-24.886-.031-18.604-.04-7.51-.004c-32.777.044-32.777.044-47.843-9.418l-2.687-1.547c-4.82-2.783-9.264-5.617-13.312-9.453v-2h-2c-7.335-7.32-16.399-19.06-16.437-29.875L1005 1262z" fill="#4d0205"/><path d="M1130 373h2l.042 153.949v2.306l.008 49.636.004 24.346v2.447l.021 78.338.018 80.59.001 11.417v2.269l.012 35.977.007 36.283.006 19.612-.892 71.257c-.914 23.617-.117 47.309.417 70.926.501 22.293.231 44.542-.144 66.834l-.248 15.007-.1 5.898L1131 1111l-.049 3.856-.028 3.755-.029 3.358c.022 2.987.022 2.987.637 5.685.592 2.97.119 5.612-.274 8.589-.52 5.567-.329 11.172-.258 16.758h-1c-.983-7.364-1.14-14.577-1.126-22.001l-.004-3.928.002-10.78-.003-11.733-.001-20.56-.001-30.573-.002-54.601.002-47.78v-3.2l-.001-12.86.005-120.657V707.098l-.004-120.439.001-12.835v-3.192l-.003-47.756.003-54.29-.001-30.396.004-20.291v-11.569l.005-12.454-.007-3.638c.013-5.843.243-11.46 1.133-17.237z" fill="#19030a"/><path d="M1154.758 353.869l2.358-.006 7.85-.003 5.674-.009 15.614-.011 16.831-.016 36.812-.024 22.979-.012 63.607-.026h4.113l4.123-.001 8.271-.001h2.071l66.498-.043 70.312-.04 38.326-.025 32.632-.012 16.651-.011 15.245.001 5.513-.01c18.805-.083 18.805-.083 27.45 4.943 5.627 5.931 9.438 12.674 9.437 20.916l.007 2.725-.008 2.987.003 3.191-.006 10.675.003 7.695-.004 16.776-.005 24.945-.008 41.958-.011 41.555v2.608l-.001 13.112-.018 92.917-.021 90.278v2.81l-.004 27.936-.008 56.911v2.643L1627 996h-1l-.003-3.966-.156-173.022-.003-2.645-.067-56.911-.033-27.909-.003-2.805-.083-90.046-.097-92.521-.018-13.063-.004-2.597-.032-41.414-.047-41.618-.018-24.737-.029-18.457v-7.478l-.022-10.144.019-2.951c-.076-8.479-2.029-14.911-7.857-21.244-5.546-5.28-10.975-5.622-18.301-5.596l-2.393-.003c-2.662-.003-5.325.002-7.987.006l-5.764-.003c-5.293-.002-10.585.002-15.878.007l-17.108.002c-9.885-.001-19.769.003-29.654.008l-42.875.012-69.557.018-67.579.021h-2.104l-20.914.004L1142 357v-2c4.264-1.041 8.396-1.142 12.758-1.131z" fill="#b83f44"/><path d="M1431 448l4 .5c3.542.388 6.687 1.126 10 2.5l1 2h3a181.01 181.01 0 0 1 4 4l3 1 4 4h2v2l3 1 .875 2.375c.902 2.83.902 2.83 3.625 4.063 3.302 2.064 3.384 3.918 4.5 7.563 1.295 1.371 2.622 2.713 4 4v2h2c3.385 9.294 4.408 17.942 4.438 27.813l.029 3.177c-.08 7.426-1.115 14.307-4.467 21.01h-2l-.312 3.25c-.707 3.857-1.245 4.871-3.687 7.75l-2.187 3.813c-4.391 7.081-10.653 11.243-17.812 15.188l-1 2c-1.848.633-1.848.633-4.062 1.125l-2.223.508L1445 571v2l-7.625 2.438-2.16.697c-15.701 4.969-35.151 4.879-50.277-1.939C1383 573 1383 573 1381.266 571.133c-3.133-2.949-6.657-4.542-10.516-6.383l-2.258-1.102L1363 561v-2l-5-1-1-5-3-1-.375-1.75c-.918-3.305-3.199-4.882-5.625-7.25-9.278-13.115-6.602-33.635-4.75-48.625l.331-2.838c.771-5.592 1.904-9.107 5.419-13.537 1.927-2.998 3.348-5.482 4-9h2l1-3c2.363-1.719 2.363-1.719 5.313-3.5 3.954-2.386 3.954-2.386 7.688-5.09 2.45-1.727 4.846-2.536 7.688-3.473 1.79-.59 3.567-1.225 5.313-1.937l1-2c15.279-5.015 32.608-7.36 48-2zm-40 4l-2.766.824c-16.986 5.902-30.066 16.149-38.773 31.973-7.178 14.859-8.05 33.075-2.8 48.737 2.383 6.317 6.016 11.352 10.339 16.467l1.496 1.98c9.232 11.847 26.617 19.836 41.141 22.621 20.927 2.479 40.389-1.372 57.426-14.164 1.333-1.122 2.647-2.267 3.938-3.437l1.883-1.676c11.204-10.549 17.991-24.762 18.524-40.115.19-15.402-3.418-27.589-12.407-40.209l-1.43-2.047c-7.664-9.886-19.004-15.88-30.57-19.953l-2.898-1.031c-7.575-2.193-15.072-2.242-22.914-2.281l-3.255-.017c-6.003.055-11.188.581-16.932 2.33z" fill="#320408"/><path d="M1081.498 237.866l3.145-.007 10.446-.006 7.56-.011 18.607-.016 22.292-.02 53.874-.04 25.494-.015 87.298-.04 5.478-.001 2.744-.001 13.764-.004 2.759-.001 88.553-.064 93.66-.057 10.286-.001h2.558l40.716-.038 40.944-.016 24.305-.023 18.177.005 7.333-.014c39.054-.178 39.054-.178 51.837 11.661L1715 251a180.09 180.09 0 0 1-8.312-3.5c-3.201-1.302-6.144-2.182-9.492-2.933-2.174-.561-4.188-1.306-6.285-2.106-5.246-1.759-10.107-1.879-15.602-1.839l-3.171-.013c-3.506-.011-7.012-.001-10.518.01l-7.618-.014-16.562-.003c-8.21.011-16.42.006-24.63-.004l-43.994-.006-38.507.006-2.58-.001-10.37-.003c-32.428-.009-64.856-.001-97.284.015-28.801.014-57.603.013-86.404-.001l-97.089-.013-10.354.003h-2.575c-12.824.003-25.648-.001-38.472-.008-14.587-.009-29.174-.006-43.761.01a9920.85 9920.85 0 0 1-24.48-.002 5115.56 5115.56 0 0 0-18.291.015 1713.02 1713.02 0 0 1-7.391-.006c-19.401-.823-19.401-.823-37.257 5.392-2.051.527-2.051.527-4.312.938-3.947.803-7.125 2.151-10.687 4.063h-2v2l-6 2c3.793-4.203 7.547-6.672 12.625-9.125l2.141-1.049c11.607-5.538 23.002-6.98 35.732-6.96z" fill="#ad3a39"/><path d="M1739 1276l1 2c-10.221 17.752-26.785 28.799-46 35-6.976 1.756-13.617 2.286-20.79 2.249l-3.167.008c-3.495.006-6.989-.002-10.484-.01l-7.601.007c-5.505.005-11.01.004-16.514-.003l-24.557-.004c-13.772.006-27.544.003-41.317-.006l-40.912-.013h-2.571-10.332c-32.301.001-64.602-.009-96.903-.024l-86.122-.019h-5.532-2.763-13.767-2.743c-23.981 0-47.963-.004-71.944-.01h-2.584l-10.288-.003-35.817-.005-46.141-.014-24.412-.006c-6.066.001-12.132-.004-18.198-.01h-7.384c-3.332.002-6.663-.002-9.995-.008l-2.932.006c-4.203-.013-8.134-.055-12.229-1.135v-1l3.958-.004 172.66-.197 2.64-.003 56.803-.075 27.856-.037 2.8-.004 89.858-.104 92.336-.114 13.04-.019 2.592-.004 41.323-.043 41.538-.054 24.682-.025 18.427-.03 7.458-.004 10.131-.02 2.93.011c10.326-.067 22.95-1.372 30.655-8.898L1710 1301c2.333-.96 4.519-1.465 7-2v-2l3.625-1.562c4.074-2.001 6.443-4.45 9.148-8.047L1731 1286h2l1-5h3l2-5z" fill="#ad363b"/><path d="M1462.456 232.879l24.161-.008 64.07-.004 2.159.001L1681 234v1l-248.785 1.098h-4.053l-99.465-.024-64.433-.019h-2.167l-21.56-.004-43.855-.008h-2.033L1062 236c4.023-2.229 7.548-2.29 12.063-2.278l2.497-.018 8.346-.023 6.033-.03 16.666-.055 18.054-.068 35.641-.117 29.191-.091 271.966-.441z" fill="#17020a"/><path d="M1057 1315l3.33.491c5.132.637 10.218.653 15.384.647l3.215.009 10.684.011 7.73.015 16.815.023 25.003.035 42.061.06 41.646.056 2.616.004 13.15.02 93.143.131 90.487.125 2.817.004 28.011.041 57.061.083 2.65.004L1688 1317c-3.71 2.473-5.553 2.247-9.984 2.241l-2.167.005c-2.402.003-4.804-.008-7.206-.019-1.72-.001-3.439 0-5.159.001-4.676.001-9.351-.011-14.026-.025l-14.662-.016-27.783-.043-31.589-.043-62.328-.095L1507 1319l-4.403-.016-18.847-.047-3.449-.006c-17.263-.02-34.502.205-51.755.801l-2.322.075-6.113.215C1417 1320 1417 1320 1414 1319a105.11 105.11 0 0 0-5.707.156l-3.449.162-3.657.182c-8.627.387-16.994.633-25.586-.344-2.608-.271-2.608-.271-5.141.375-2.461.469-2.461.469-4.691.006-3.237-.628-6.245-.663-9.543-.664l-2.025-.005c-2.232-.004-4.464-.001-6.697.002l-4.811-.005c-4.351-.005-8.703-.003-13.054 0-4.558.003-9.116 0-13.674-.001-7.657-.002-15.315.001-22.972.005-8.843.005-17.685.004-26.528-.002l-22.795-.003c-4.535.002-9.07.002-13.606-.002-4.267-.003-8.535-.001-12.802.005-1.562.001-3.125.001-4.687-.001-9.091-.094-9.091-.094-18.136.668-3.599.487-6.742.362-10.354.036-8.493-.654-16.933-.716-25.448-.704l-4.831-.003a5413.99 5413.99 0 0 0-10.016.005c-4.283.006-8.565.002-12.848-.004a5297.22 5297.22 0 0 0-9.926 0 2502.92 2502.92 0 0 1-4.743-.002c-2.194-.003-4.388.001-6.582.007l-3.779.002c-2.849-.074-2.849-.074-4.911 1.127a165.8 165.8 0 0 1-7.187-.437 183.12 183.12 0 0 0-16.687-.5c-7.123.053-14.067-.024-20.125-4.062z" fill="#170208"/><path d="M1625 1119h1l.155 24.619.071 11.434.058 11.049.033 4.2c.181 16.235.181 16.235-5.13 23.011-2.588 1.996-5.22 3.327-8.187 4.688l-2.062 1.125c-4.71 2.127-9.614 2.012-14.69 1.982l-2.356-.002-7.843-.024-5.668-.01-15.598-.041-16.812-.039-29.135-.072-42.124-.104-68.341-.168-66.395-.166-2.067-.005-20.55-.049L1147 1200c1.032-1.477 1.032-1.477 3-3a58.7 58.7 0 0 1 7.481-.371l2.34-.011 7.828.017 5.644-.009 15.559.015h16.761l29.063.01 42.05-.002 68.257-.028h2.064l47.662.011 4.138.002 2.068.001 8.258.004 4.121.002 70.033-.023 41.944.011 28.745-.006 16.59.01 15.189-.008 5.493.014c11.187.079 18.737-.705 27.585-8.014 5.891-7.278 5.591-14.387 5.637-23.434l.054-4.006.103-10.48.121-10.719L1625 1119z" fill="#a92f32"/><path d="M1622 1123h1l.11 22.742.041 7.734.044 11.125.031 3.486c.001 5.351-.013 9.926-2.227 14.913h-2v3h-2l-.5 2.813c-1.5 3.188-1.5 3.188-5.083 4.863-4.187 1.424-8.186 1.745-12.587 1.702l-2.382.013c-2.626.011-5.252.001-7.878-.01l-5.715.014c-5.228.013-10.457.006-15.685-.003-5.641-.007-11.282.004-16.922.012l-33.141.002-26.927-.004-3.869.001-7.782.003c-23.632.008-47.265 0-70.897-.016-21.578-.014-43.155-.013-64.733.001l-72.729.013-7.75-.003-3.852-.001c-8.969-.003-17.938.002-26.907.009-10.924.008-21.848.006-32.772-.01l-16.729-.001c-5.1.009-10.201.004-15.301-.012-1.849-.003-3.698-.002-5.547.006-2.506.009-5.012 0-7.518-.014l-2.194.021c-4.369-.049-7.068-.81-10.598-3.399 3.726-1.178 6.146-.527 9.899.503 3.204.758 6.297.746 9.581.746l2.156.008 7.118-.01 5.17.007 14.183-.008 15.31.002 30.006-.01 35.021-.01 62.589-.023 60.543-.021h3.755 3.749l69.097-.014 24.319-.005 29.764-.014 15.142-.006c23.552.005 47.06-.285 70.598-1.146v-2l2.813-1.187c5.352-3.043 6.71-7.668 8.548-13.273 1.077-4.278.988-8.445.897-12.833l-.02-2.878-.113-9.017-.091-9.049-.07-5.606c-.052-4.516.102-8.711 1.036-13.157z" fill="#170208"/><path d="M1163.695 355.379l5.728-.019 15.694.017 16.943-.008 33.17.019 38.623.02 70.986.054 64.795.038 4.162-.001 2.078-.001 10.358-.003 2.064-.001 54.16.02 3.888.003 7.732.006 26.93.006 32.806.032 16.742.013 15.32.023 5.547-.001 7.532.02 2.182-.02c6.594.078 11.841 2.065 16.804 6.465l1.777 1.535C1621 365 1621 365 1621 367h-5v-2l-1.937-.75c-2.062-1.25-2.062-1.25-2.691-3.328L1611 359l-176.44-.153-20.826-.012-2.093-.001-67.159-.063-70.979-.053-42.517-.041-29.148-.017c-5.607.002-11.214-.001-16.822-.017l-15.404-.005c-1.856.001-3.712-.003-5.568-.012-12.337-.17-12.337-.17-24.224 2.829C1138 362 1138 362 1135 361c8.918-6.247 18.297-5.698 28.695-5.621z" fill="#3a0002"/><path d="M1426 775c1.403 3.847.64 6.87-.187 10.813l-.425 2.029c-1.192 5.556-2.671 11.019-4.173 16.498-1.615 6.059-2.992 12.176-4.402 18.285l-7.735 32.458-9.552 40.724-8.68 36.724-6.227 25.864-1.166 4.875c-3.415 12.9-3.415 12.9-.89 25.605 4.914 6.3 10.872 7.879 18.438 9.125 3.174.26 6.327.286 9.51.278l2.77.018 9.12.023 6.565.03 17.775.055 18.594.068 35.188.117 28.123.093 2.002.007 9.945.037L1623 999v1l-86.678.153-10.24.012-2.059.002-32.98.064-33.856.051-19.01.035-17.899.022-6.563.018-8.976.003-2.609.026c-7.835-.058-16.312-1.853-22.129-7.387-3.424-9.165-2.269-19.008-.187-28.312 1.871-8.804 3.305-17.619 4.574-26.527 1.291-8.838 1.291-8.838 3.613-11.16v-2.375c0-2.942.643-4.062 2-6.625 1.525-4.905 2.605-9.824 3.5-14.875 2.775-15.177 2.775-15.177 4.434-19.633 1.834-6.007 2.596-12.237 3.566-18.434l.5-3.043.438-2.772C1403 857 1403 857 1405 855c.645-2.625.645-2.625 1.063-5.562.84-5.34.84-5.34 1.938-6.437a126.23 126.23 0 0 0 .75-4.25c.766-4.027 1.907-7.54 3.5-11.312 5.745-14.336 8.323-30.066 11.545-45.132 1.101-5.098 1.101-5.098 2.205-7.306z" fill="#c03d41"/><path d="M1167.007 357.512l5.719-.012 15.629.021 16.887.002 33.039.031 38.465.029 68.604.06 66.605.062 2.075.001 10.346.004 2.062.001 4.117.001 65.503.041 19.179.014 40.315.042 16.673.019 15.243.021 5.533.004 7.483.013 2.201-.004c3.052.015 5.395.165 8.316 1.139l1 3-2.599-1.023c-3.661-1.052-6.046-.999-9.815-.61-10.641.929-21.288.782-31.961.758l-3.276-.002a1639.55 1639.55 0 0 1-52.132-.855l-2.473-.075-4.544-.154c-3.723-.18-3.723-.18-7.201.961-1.862-.117-1.862-.117-4.087-.429-4.532-.563-8.956-.712-13.519-.7l-2.448-.005a2696.01 2696.01 0 0 0-7.919.002l-5.554-.003c-3.867-.001-7.734.001-11.602.005-4.941.006-9.883.002-14.824-.004-3.819-.004-7.637-.002-11.456 0a3314.96 3314.96 0 0 1-5.465-.002 2408.51 2408.51 0 0 0-7.651.007l-2.25-.006c-3.589.014-7.056.197-10.615.675-3.213.41-4.638.31-7.611-.539l-4 1c-2.332.079-4.668.088-7 0l-1-1a268.75 268.75 0 0 0-9.306-.129l-2.961-.005c-3.25-.004-6.499-.001-9.749.002l-6.753-.003c-4.728-.001-9.456.001-14.184.005-6.061.006-12.121.002-18.182-.004-4.653-.004-9.306-.002-13.959 0-2.234.001-4.469 0-6.703-.002-3.127-.003-6.253.001-9.38.007l-2.803-.006c-4.163.014-7.947.19-12.021 1.136a74.01 74.01 0 0 1-4.296.129l-2.469.01-2.63-.006-2.746.003a2259.54 2259.54 0 0 1-5.742-.005 2164.17 2164.17 0 0 0-8.729.006l-5.596-.004-2.611.006c-5.151-.02-10.081-.419-15.182-1.139-5.148-.383-5.148-.383-10 1a203.47 203.47 0 0 1-8.059.133l-2.478.003a1883.19 1883.19 0 0 1-5.233-.005 1731.3 1731.3 0 0 0-7.795.006c-9.404.003-18.754-.203-28.138-.853-9.18-.591-17.948.77-26.298 4.717-2.302 2.379-3.611 5.007-5 8-.125-2.375-.125-2.375 0-5l2-2 .289-1.986c.711-2.014.711-2.014 2.984-3.262 10.002-3.131 19.333-3.307 29.733-3.239z" fill="#170208"/><path d="M1284 1112c2.932.409 5.569.819 8.307 1.97 14.299 5.469 32.061 3.341 47.096 3.347l11.525.033 19.915.047 28.793.068 46.726.113 45.361.104 2.829.007 14.054.037L1625 1118l.207 23.446.095 10.889.078 10.523.074 5.935c.002 7.228-.438 12.116-4.453 18.207-1.91 1.9-3.81 3.407-6 5 .506-2.169 1-4 2-6h2v-3h2l-.062-2.437C1621 1178 1621 1178 1622 1177c.094-1.78.117-3.564.114-5.346v-3.458l-.016-3.763-.004-3.83-.025-10.096-.02-10.295L1622 1120l-1.998.002-117.343.1-14.1.008-2.835.002-45.407.043-46.617.034-28.749.028-19.733.011c-3.791-.001-7.582.001-11.373.011l-12.362.002-3.588.018c-9.861-.035-19.965-.685-29.209-4.383l-2.738-1.07L1284 1114v-2z" fill="#56090b"/><path d="M1738 1280c1 3 1 3 .145 4.867-10.773 16.238-23.321 24.146-41.145 31.133l-2.526 1.057c-4.709 1.278-9.122 1.21-13.98 1.179l-3.221.004c-3.58.002-7.159-.011-10.739-.024l-7.755-.003-16.89-.025-25.115-.038-44.849-.068-39.242-.067-2.627-.004-10.558-.015-99.07-.169-88.074-.14-98.9-.149-10.536-.019-2.621-.005-39.23-.057-44.585-.078-24.973-.039-18.605-.04-7.558-.008c-3.405.001-6.81-.011-10.215-.026l-3.014.009-2.735-.02-2.362-.004C1065 1317 1065 1317 1062 1315l3.997.002 174.378.082 2.666.001 57.363.017 28.13.008 2.828.001 90.752.042 93.251.035 13.168.002h2.618l41.737.024 41.948.013 24.929.015h18.606l7.535.008 10.227-.004 2.967.016c7.522-.037 15.079-.851 21.901-4.262l1-2c2.152-1.12 4.302-2.166 6.5-3.187 11.831-5.731 22.741-14.352 29.5-25.812z" fill="#2e0002"/><path d="M1257 1101c4.893 1.875 9.587 4.146 14.297 6.434 4.172 1.984 8.228 3.41 12.703 4.566v2l1.723.367c3.66.794 7.249 1.624 10.84 2.695 8.034 2.191 16.049 2.089 24.32 2.096l3.906.015 10.686.027 11.542.035 19.981.056 28.889.08 46.873.131 45.525.125 2.836.008 14.084.041L1622 1120v2c-3.064.898-5.761 1.111-8.949 1.076l-3.021-.026-3.299-.044-3.491-.034-7.525-.082-11.997-.125-29.873-.312-23.094-.238-13.701-.151c-13.691-.142-27.327.043-41.009.56-12.625.467-25.237.521-37.869.508l-7.372.003c-5.106.001-10.211-.001-15.317-.005-6.406-.006-12.813-.002-19.219.003-23.774.018-47.543-.022-71.311-.579l-2.615-.059c-24.226-.564-24.226-.564-30.151-3.246-3.839-1.673-7.693-3.184-11.625-4.625-5.361-2.04-10.272-4.502-15.223-7.391-2.25-1.309-2.25-1.309-4.57-1.777-1.77-.457-1.77-.457-3.02-2.52L1257 1101z" fill="#1d0308"/><path d="M1128 1187l3 2v2l1.683.281c2.915.905 4.897 2.474 7.395 4.227 8.286 4.885 16.278 4.465 25.677 4.372l5.674.03 15.516-.013 16.76.022 29.013.006 41.948.008 68.063.022 66.105.002 2.06.002 20.479.018L1603 1200v1c-7.154.946-14.144 1.136-21.355 1.114h-3.698l-10.097-.013-10.914-.008-18.892-.018-27.334-.023-44.378-.032-2.68-.003-18.838-.018-21.535-.021-2.68-.003-44.227-.03-27.269-.025-18.674-.015-10.775-.012-11.678-.008-3.442-.011c-4.979.007-9.628.173-14.532 1.124-2.092.023-2.092.023-4.02-.119l-2.255-.146-2.427-.169c-11.471-.679-22.916-.682-34.404-.642l-11.229.024-23.79.051-27.704.056-11.017.032-6.779.01-3.054.016c-17.602.001-17.602.001-23.133-3.488l-2.211-1.352L1136 1196l-2.937-1.75L1131 1193l-2-1c-.625-2.562-.625-2.562-1-5z" fill="#d52d2d"/><path d="M1358 473c0 2.84-.403 5.237-1 8h-3v2h-2l-.375 2.625c-.609 3.286-1.569 6.208-2.625 9.375-3.315 11.094-2.546 21.532.577 32.531 1.017 3.593 1.653 6.729 1.423 10.469h2l.188 1.875c.641 2.403.641 2.403 3.375 3.375l2.438.75v4l4 2v2h2l4 6 2 1v2l2.688.813c3.313 1.188 3.313 1.188 5.5 2.75 4.371 2.234 8.966 2.191 13.813 2.438v2c12.787 1.645 24.272 2.237 37 0l7-1v-2h5v-2h7v-2h4v-2c1.75-1.508 1.75-1.508 4-3.125l2.25-1.633L1461 554l2 1c-12.68 13.244-30.712 19.797-48.846 20.293-19.252.178-37.159-6.354-51.877-19.008-7.642-7.669-13.391-15.714-16.277-26.285l-1.074-3.215c-1.119-4.575-1.269-8.782-1.238-13.473l.017-2.684c.258-14.002 4.522-27.281 14.295-37.629z" fill="#b6383c"/><path d="M1391 928h1c-.286 12.345-.602 24.07-4 36l-.469 2.461c-.531 2.539-.531 2.539-1.617 5.422-1.056 3.602-.919 6.272-.539 9.992l.336 3.492L1386 988h2v2l5 2v2l33 .438 2.65.033 125.6 1.092 2.499.017L1621 996v1l-75.451.052-35.043.024-30.59.019-16.155.012c-38.527.05-38.527.05-55.98-.431l-5.933-.148-3.492-.116-3.014-.093C1393 996 1393 996 1391 994c-1.3-.453-2.615-.866-3.937-1.25-3.087-1.137-3.962-1.621-6.062-4.312-4.115-14.146 2.784-30.903 6.188-44.812l1.115-4.578L1391 928z" fill="#280106"/><path d="M1337.423 648.385l3.64-.017 9.793.026 10.289.012 17.258.052 19.921.039 19.225.024 8.157.009 11.388.05 3.401-.009c11.198.123 11.198.123 15.505 4.429-.032 8.232-2.323 16.31-4.25 24.25l-1.425 5.964-.955 3.994-2.874 12.608-.677 3.091-1.221 5.705c-.47 2.144-1.025 4.269-1.599 6.388l-2 1 .813-5.75.457-3.234c.898-5.415 2.366-10.704 3.73-16.016l3.125-12.562.801-3.17c3.324-11.224 3.324-11.224 2.074-22.268-2.968-.989-4.941-1.137-8.039-1.161l-3.156-.03-3.462-.018-3.647-.03-11.981-.07-2.062-.01-19.275-.074-24.604-.133-17.325-.079-10.333-.06-11.553-.032-3.419-.061c-7.603.069-13.318 1.682-19.144 6.758-2.715 3.955-3.837 7.584-4.937 12.25l-.499 2.094-1.034 4.396-1.639 6.807-1.078 4.453-.506 2.063c-1.1 4.63-1.784 9.205-2.307 13.937h-1l-2 11h-2l-.148 2.738-.227 3.574-.211 3.551C1296 728 1296 728 1294 731c-.385 1.655-.728 3.322-1 5l-2-1 3.388-15.253 1.228-5.533c2.198-9.939 4.414-19.82 7.361-29.569.813-2.896 1.518-5.762 2.172-8.695l.617-2.697 1.133-5.239c1.582-6.879 4.233-11.446 10.19-15.399 6.878-3.734 12.59-4.321 20.334-4.229z" fill="#af383d"/><path d="M1336.319 650.401l3.679-.012 9.923.038 10.408.021 17.461.064 20.177.063 21.516.047 6.19.013 11.526.058 3.46.002 3.169.03 2.751.014c2.625.282 4.239.779 6.422 2.26 1.611 5.719.569 10.56-.75 16.188l-.564 2.519L1450 679l-.867 3.836c-1.851 7.883-1.851 7.883-4.133 10.164-.302-4.43.179-7.969 1.375-12.25 2.269-8.432 2.854-17.079 3.625-25.75-3.197-1.066-5.957-1.354-9.312-1.625l-3.363-.289c-3.243-.195-3.243-.195-6.071.4-3.591.567-6.993.643-10.628.646l-2.083.003a1285.79 1285.79 0 0 1-4.336-.005 1235.08 1235.08 0 0 0-6.596.006l-4.234-.004-3.852-.003c-3.523-.129-3.523-.129-6.859-.7-2.63-.69-2.63-.69-4.664.571l-3-1c-1.786-.095-3.575-.131-5.363-.133l-3.336-.006-3.614.014-3.721.01-28.404.49-3.874.093-3.622.118-3.189.095c-2.994.332-5.198.951-7.877 2.319l-1.5 2.5c-1.5 2.5-1.5 2.5-3.984 3.285-2.78.996-2.78.996-3.625 3.93l-.641 3.223-.672 3.215L1311 675l-1 3 .188 2.188c-.222 3.326-1.535 5.452-3.098 8.344-2.165 4.903-3.037 10.234-4.09 15.469h-1c-.403-7.316 1.105-13.846 2.813-20.937l.791-3.42c4.449-18.885 4.449-18.885 10.396-23.643l1.592-1.292c6.05-4.371 11.439-4.402 18.728-4.307z" fill="#d22d32"/><path d="M1246 919h1c-.484 7.278-1.863 13.984-3.812 21-1.961 7.287-3.86 14.571-5.5 21.938l-.482 2.127c-.756 3.45-1.346 6.871-1.749 10.377C1235 978 1235 978 1234 979c-.547 2.331-1.043 4.651-1.5 7l-.408 2.053c-.73 3.765-1.334 7.506-1.717 11.322C1230 1003 1230 1003 1229 1004c-2.68 20.218-3.762 45.855 7 64l3 1 1 5 3 1v3h2c1.461 2.647 2 3.894 2 7l1.75.75c2.599 1.444 4.328 2.985 6.25 5.25v3h5l1 2c1.717.945 1.717.945 3.75 1.813 2.901 1.376 4.33 2.274 6.563 4.688 4.774 4.441 11.184 5.723 17.313 7.625C1291 1111 1291 1111 1292 1113l3 2c-14.991-2.787-29.636-9.781-41-20l-2.672-2.391c-10.286-9.718-17.836-21.115-22.328-34.609l-1.187-3.473c-2.906-9.576-3.184-19.147-3.187-29.09l-.005-3.929c.068-5.766.381-10.887 1.87-16.444.856-3.466 1.272-6.989 1.764-10.522 1.781-11.928 4.746-23.544 7.684-35.23l1.592-6.416 3.782-15.15 2.533-10.124L1246 919z" fill="#b83b40"/><path d="M1708 1305c-10.957 6.761-21.336 8.155-34.011 8.129l-3.327.005a5308.43 5308.43 0 0 1-10.994-.002l-7.855.004c-6.34.003-12.681 0-19.021-.006l-15.394-.008L1440 1312v-1l3.311.003 80.118.049 38.746.024 33.81.019 17.867.012 60.161-.549 3.416-.118c4.951-.022 4.951-.022 9.572-1.439 1.352-.129 2.707-.229 4.063-.312 4.528-.432 7.98-1.86 11.992-3.945C1705 1304 1705 1304 1708 1305z" fill="#d72d32"/><path d="M1442 456c11.348 1.56 21.322 11.525 28.043 20.199 9.752 13.956 12.535 29.089 10.957 45.801-2.301 12.387-8.293 23.009-17 32l-1-3 1-2h2l.316-1.629c.861-2.986 2.197-5.547 3.621-8.309 3.729-6.762 3.729-6.762 5.063-14.187 0-2.875 0-2.875 2-5.875.9-8.812-.365-17.015-3.625-25.187-1.344-3.371-1.649-6.155-1.375-9.812h-2v-3l-3-1v-2h-2l-.75-1.812c-1.13-2.32-1.13-2.32-3.375-3.75L1459 471v-3l-5.25-2.937-2.953-1.652c-2.333-1.176-4.25-1.931-6.797-2.41v-3l-2-2z" fill="#b8363a"/><path d="M1338.996 644.43c12.355.779 24.708.721 37.083.701l11.938.006c17.523.004 17.523.004 35.019-.875 1.652-.121 3.308-.197 4.963-.262l1 1a209.9 209.9 0 0 0 7.5 0c16.043-.092 16.043-.092 20 2.875 2.585 3.662 2.636 6.702 2.625 11.063l.008 3.152c-.116 2.535-.424 4.497-1.133 6.91l-.648 2.629L1452 692h-1c.361-6.096 1.139-11.868 2.563-17.812 1.649-7.332 3.311-16.296.543-23.523-1.014-1.826-1.014-1.826-3.105-2.664-1.639-.101-3.283-.139-4.925-.147l-3.156-.022-3.477-.008-3.652-.02-12.012-.041-4.139-.012-19.46-.042-22.43-.077-17.353-.048-10.355-.036-11.575-.016-3.434-.039c-6.136.04-10.728.724-16.201 3.577-2.22 1.131-4.366 1.614-6.83 1.932.813-1.937.813-1.937 2-4l3-1 5.77-2.281c5.469-1.762 10.563-1.714 16.227-1.289z" fill="#1a040b"/><path d="M1472 547l2 2c-4.71 6.798-9.598 12.202-16.875 16.25-3.183 1.398-3.183 1.398-4.125 3.75-1.848.633-1.848.633-4.062 1.125l-2.223.508L1445 571v2l-7.625 2.438-2.16.697c-15.726 4.978-35.267 4.912-50.375-2.037-1.937-1.155-3.323-2.439-4.84-4.098 2.566.478 5.054 1.016 7.559 1.754 17.732 4.98 39.712 4.203 56.129-4.441l3.324-1.887c3.1-1.479 4.65-1.464 7.988-1.426 7.215-3.912 12.212-10.516 17-17z" fill="#300104"/><path d="M1246 917l3 2c-.511 5.721-1.35 11.349-2.375 17l-.345 1.975c-.658 3.53-1.522 6.843-2.721 10.229-1.98 5.724-3.012 11.604-4.121 17.547l-1.254 6.609-.545 2.921c-.639 2.723-1.563 5.142-2.638 7.72-2.147 8.135-3.364 16.154-3.789 24.551C1231 1010 1231 1010 1230 1011c-.221 4.056-.186 8.117-.185 12.179l-.039 6.063c-.016 11.133.25 23.51 5.225 33.758l2 1c.625 2.563.625 2.563 1 5-1.836-.57-1.836-.57-4-2-1.082-2.337-1.889-4.432-2.625-6.875l-.641-2.062c-5.184-17.185-5.087-36.311-2.734-54.063l1-1c.355-1.951.658-3.912.938-5.875l2.125-13.375.473-2.703C1233 979 1233 979 1234 978l1.313-8.125c1.123-7.075 2.644-13.895 4.57-20.801 1.39-5 2.637-10.033 3.867-15.074l.675-2.681c1.188-4.912 1.822-9.266 1.575-14.319z" fill="#d32d32"/><path d="M1003 999h1l.013 3.772.318 88.766.041 10.941.008 2.2.124 35.201.132 36.158.072 20.293.071 19.123.023 6.997c-.883 23.403-.883 23.403 5.197 45.548l1.621 1.602c1.379 1.398 1.379 1.398 1.566 4.586L1013 1277c-2.997-2.534-4.126-5.263-5.562-8.875l-1.254-3.117L1005 1262l-1.059-2.038c-1.41-4.437-1.209-8.73-1.182-13.358l-.005-3.206.019-10.65-.001-7.628.016-16.43.024-23.755.037-38.542.041-37.438.002-2.331.008-11.579L1003 999z" fill="#ca3237"/><path d="M1345 489h3l-.656 2.359c-4.23 16.997-4.686 35.429 4.594 50.863 1.918 2.7 3.932 5.244 6.063 7.777l1.273 1.758c9.393 12.724 28.675 19.729 43.727 22.242v1c-15.18-.598-26.986-6.784-40-14v-2l-5-1-1-5-3-1-.375-1.75c-.918-3.305-3.199-4.882-5.625-7.25-9.316-13.169-6.664-34.104-4.535-49.086C1344 491 1344 491 1345 489z" fill="#4b070a"/><path d="M1005 1262c1.795 2.692 3.111 5.364 4.461 8.293 5.909 12.593 13.885 22.865 25.539 30.707l1.914 1.352c6.453 4.329 13.738 7.199 21.086 9.648v2l3 1c-9.195.669-15.535-2.862-23.094-7.781-1.809-1.156-3.646-2.193-5.531-3.219-3.539-2.097-6.364-4.209-9.375-7v-2h-2c-7.335-7.32-16.399-19.06-16.437-29.875L1005 1262z" fill="#360306"/><path d="M1716 251c16.603 8.83 25.989 24.618 32 42 1.546 5.437 2.241 10.084 2.195 15.781l-.009 2.118-.062 6.601-.027 4.516L1750 333h-1l-.06-2.595-.257-9.673-.104-4.16c-.185-8.024-.596-15.759-2.578-23.572h-2l-.75-2.875c-.936-3.212-.936-3.212-3.375-4.5L1738 285v-2l-2-1-1-7c-.618-2.797-.618-2.797-2-5-1.654-.697-3.323-1.361-5-2-2.187-2.309-3.765-4.001-4.5-7.125-.703-2.638-2.332-3.336-4.5-4.875v-2l-3-1v-2z" fill="#bd373b"/><path d="M1062 237l-3.687 1.313c-2.455.913-4.463 1.783-6.687 3.188-3.305 1.889-6.645 2.718-10.32 3.656-2.489.911-3.481 1.99-5.305 3.844h-3l-1 3c-1.855 1.324-1.855 1.324-4.187 2.688-4.276 2.703-6.858 5.57-9.621 9.773L1017 266h-2l-.812 2.625c-1.159 3.295-2.628 6.256-4.187 9.375-.686 2.235-.686 2.235-1 4h-2l-.812 2.563c-1.187 3.438-1.187 3.438-2.75 7-1.207 2.887-1.972 5.364-2.437 8.438h-2c.664-7.864 2.445-13.925 6-21l1.648-3.473 1.727-3.59 1.711-3.598c1.957-3.415 3.939-5.777 6.914-8.34h2v-2c2.958-2.747 5.434-4.723 9.063-6.5 3.059-1.364 3.059-1.364 5.313-3.937 5.479-5.349 20.934-13.666 28.625-10.562z" fill="#1b0309"/><path d="M1295 728h1c-.378 4.229-.866 7.784-2.414 11.742-1.636 4.226-2.7 8.458-3.648 12.883l-.519 2.359c-1.048 4.888-1.844 9.747-2.481 14.704-.649 5.033-1.797 8.752-3.937 13.313-.374 2.327-.708 4.661-1 7l-.945 3.289c-1.001 3.523-1.713 6.985-2.367 10.586-1.661 8.553-4.112 16.808-6.687 25.125h-1c-.222-6.549.459-12.098 2.117-18.418l.658-2.609 2.1-8.161 1.395-5.506c3.506-13.782 3.506-13.782 5.73-20.307l1.375-6.312 2.707-12.168.555-2.278 1.093-4.379c.772-3.161 1.27-5.975 1.258-9.237C1290 737 1290 737 1292 735c1.038-2.316 2.042-4.649 3-7z" fill="#d13036"/><path d="M1424 788h1c.158 4.264.077 8.093-.848 12.262-.941 4.517-1.706 9.05-2.406 13.609l-.324 2.105-1.32 8.675-.981 6.407-.58 3.822C1418 838 1418 838 1417 841h-2l-.551 2.02-1.59 5.805-1.656 6.32-.766 2.98-.691 2.758C1409 863 1409 863 1407 864c.557-8.156 2.597-15.871 4.637-23.754l3.07-12.051.607-2.401c2.104-8.374 3.946-16.797 5.713-25.247.882-4.213 1.902-8.378 2.973-12.547z" fill="#460408"/><path d="M1236 1069h3l1 5 3 1v3h2c1.461 2.647 2 3.894 2 7l1.75.75c2.599 1.444 4.328 2.985 6.25 5.25v3h5l1 2c1.717.945 1.717.945 3.75 1.813 2.901 1.376 4.33 2.274 6.563 4.688 4.774 4.441 11.184 5.723 17.313 7.625C1291 1111 1291 1111 1292 1113l3 2c-21.247-3.95-41.703-16.532-54.285-34.211-1.52-2.471-2.177-4.012-2.715-6.789l-2-5z" fill="#c33438"/><path d="M1697 241c5.123-.401 8.009.72 12.438 3.25l3.414 1.926L1716 248l2.398 1.355L1723 252v2l2.375.188L1728 255c.717 1.646 1.383 3.314 2 5 2.017 1.344 2.017 1.344 4 2v2h2v2l1.84.199c2.16.801 2.16.801 3.539 2.883 2.622 6.048 4.562 11.936 5.945 18.387.589 2.749.589 2.749 2.676 5.531.414 2.918.414 2.918.625 6.188l.227 3.293.148 2.52c-1.846-3.301-2.673-6.523-3.562-10.187-3.748-13.311-10.382-25.245-20.437-34.812l-1.922-1.91c-7.992-7.513-17.818-12.435-28.078-16.09v-1z" fill="#3b050a"/><path d="M1628 641c2.457 3.685 2.076 5.65 2 10l.563 2.063c.438 1.938.438 1.938-.028 4.691-.514 3.121-.655 5.978-.648 9.136v3.496l.016 3.793.004 4.028.018 8.648.024 13.679.051 29.031.053 31.354.028 13.594.013 8.457.018 5.783v3.488l.007 3.024c-.118 2.68-.519 5.128-1.12 7.738h-1V641z" fill="#d72a2e"/><path d="M1251 891h1c-.534 7.046-1.682 13.755-3.312 20.625l-.607 2.637-5.525 22.526-2.915 11.65-1.191 4.766-.596 2.385L1233 975h-1l.375-7.375.094-2.117c.305-5.281.305-5.281 2.531-7.508.518-2.486.94-4.929 1.313-7.437 1.054-6.559 2.482-12.91 4.25-19.312 1.782-6.469 3.169-12.811 3.98-19.488.509-3.074 1.434-5.822 2.457-8.762l2.316-8.707C1250 892 1250 892 1251 891z" fill="#470507"/><path d="M1461 554l2 1c-5.042 5.266-10.404 9.056-16.875 12.313l-1.924.984c-10.015 4.851-19.204 6.173-30.264 5.578l-3.354-.109c-6.933-.311-13.053-1.408-19.584-3.766v-2l-2-1h4v2c12.787 1.645 24.272 2.237 37 0l7-1v-2h5v-2h7v-2h4v-2c1.75-1.508 1.75-1.508 4-3.125l2.25-1.633L1461 554z" fill="#ca3237"/><path d="M1472 487c4.89 3.959 6.186 10.043 7 16 .258 4.248.277 8.495.313 12.75l.088 3.422c.107 14.2-6.061 24.557-15.4 34.828l-1-3 1-2h2l.316-1.629c.861-2.986 2.197-5.547 3.621-8.309 3.729-6.762 3.729-6.762 5.063-14.187 0-2.875 0-2.875 2-5.875.908-8.893-.449-17.097-3.625-25.375C1472 490 1472 490 1472 487z" fill="#bd353a"/><path d="M1406 864h1c.164 6.165-.447 11.921-1.437 18l-.809 5.125-.396 2.481c-.34 2.27-.612 4.539-.866 6.82-.523 3.801-1.641 6.242-3.492 9.574-1.887 4.143-2.79 8.362-3.625 12.813l-.406 2.1L1395 926l-3 1c.718-7.474 2.447-14.643 4.188-21.937l.936-3.965L1400 889l.916-3.839L1406 864z" fill="#4f0609"/><path d="M1440 454l2 2-9.345-1.485c-7.373-1.515-14.514-1.9-22.03-1.89l-3.598.003c-9.39.127-19.089.298-26.027 7.372l-3.312.938c-5.208 1.501-8.669 3.534-11.687 8.063l-4 2-1 2h-2c3.941-9.504 16.24-14.862 25-19 16.812-6.85 39.089-6.427 56 0z" fill="#aa3b3d"/><path d="M1014 1277c4 4.75 4 4.75 4 7h2c3 3.462 3 3.462 3 6l3 1v2l3.313.25c3.688.75 3.688.75 5.375 2.75l1.313 2c2.094.796 2.094.796 4 1v2l4 1v2l2.688.25c3.787.857 5.354 2.309 8.313 4.75 3.179 1.256 3.179 1.256 6 2v1c-13.791-.238-27.665-9.408-37.055-19.07-9.945-10.582-9.945-10.582-9.945-15.93z" fill="#b9363a"/><path d="M1304 671l2 1c-.36 5.227-1.181 9.918-2.687 14.938-2.066 6.918-3.713 13.898-5.312 20.938L1291 737h-1c-.334-7.141.512-13.261 2.438-20.125 1.942-7.064 1.942-7.064 3.133-14.281.479-4.01 1.836-6.896 3.43-10.594.588-2.56 1.063-5.127 1.531-7.711.529-2.585 1.456-4.859 2.469-7.289a127.16 127.16 0 0 0 1-6z" fill="#400406"/><path d="M1442 456c2.473 1.637 2.473 1.637 4 3h-2v2l5 1v2h-2v-2h-4v-3a326.96 326.96 0 0 0-10-3l-2.223-.645c-9.398-2.304-21.374-2.859-30.777-.355l-4.125.188c-4.955.503-8.199 2.575-12.316 5.254-3.303 2.012-6.715 3.356-10.332 4.699-2.155.832-4.179 1.793-6.227 2.859 1.343-4.029 3.39-4.871 6.922-6.992 2.486-1.205 4.35-1.434 7.078-1.008l1-3c2.363-1.133 2.363-1.133 5.313-2.125l2.926-1.008c15.783-4.956 36.2-3.246 51.762 2.133z" fill="#d02e31"/><path d="M1625 1119h1l.155 24.619.071 11.434.058 11.049.033 4.2c.181 16.235.181 16.235-5.13 23.011-5.724 4.415-10.17 5.109-17.187 4.688 2.432-1.621 4.796-2.961 7.375-4.312 5.541-3.085 9.529-6.359 11.998-12.369 1.414-5.231 1.111-10.745 1.138-16.127l.054-4.006.103-10.48.121-10.719L1625 1119z" fill="#9a2629"/><path d="M1738 1280c1 3 1 3 .145 4.867-7.055 10.635-15.567 21.09-28.145 25.133-2.724.216-5.26.144-8 0 2.661-1.774 5.293-3.215 8.125-4.687 10.986-5.985 21.452-14.421 27.875-25.312z" fill="#1b0206"/><path d="M1426 775c1.403 3.847.64 6.87-.187 10.813l-.425 2.029c-1.187 5.535-2.659 10.978-4.157 16.436-1.709 6.412-3.17 12.884-4.668 19.348l-.914 3.931-4.141 17.983-1.32 5.711-.59 2.631c-1.371 5.892-1.371 5.892-3.598 8.119.336-6.982 1.778-13.44 3.555-20.164.947-3.641 1.705-7.149 2.007-10.899.438-3.937.438-3.937 1.781-6.945 2.26-5.065 3.351-10.419 4.594-15.805l.784-3.326 5.073-22.554c1.102-5.1 1.102-5.1 2.205-7.307z" fill="#bd3b41"/><path d="M1138 355h4l1 3-3.625 1.438c-7.058 3.535-10.087 10.239-12.725 17.392-.999 3.336-1.053 6.493-1.082 9.963l-.031 2.22-.048 7.174-.054 5.01-.103 13.119-.121 13.414L1125 454h-1l-.052-29.365-.024-13.636-.019-13.169-.011-5.015-.008-7.044-.011-2.077c.009-4.34.426-8.424 1.124-12.694l3-1a125.84 125.84 0 0 0 2-6c1.587-3.324 2.347-4.681 5.688-6.312L1138 357v-2z" fill="#c92f32"/><path d="M1029 255l2 1-3 5h-2l-.75 1.75c-1.419 2.555-3.191 4.191-5.25 6.25l-2 4-2 1c-.652 2.025-.652 2.025-1 4h-2l-.551 1.793-.762 2.395-.738 2.355C1010 287 1010 287 1008.5 289.375c-1.776 3.107-2.446 5.943-3.187 9.438l-.762 3.52L1004 305h-2c.536-5.671 1.621-10.515 3.688-15.812l.813-2.104c4.216-10.656 9.459-18.866 17.499-27.083l1.688-1.734L1029 255z" fill="#b8393e"/><path d="M1327 648h126v3l-1.68-.49c-2.542-.559-4.829-.649-7.432-.668l-3.127-.03-3.413-.017-3.608-.03-9.78-.068-10.226-.076-19.358-.138-22.041-.16L1327 649v-1z" fill="#450103"/><path d="M1398 885c1.455 2.911.635 4.958.063 8.125l-.59 3.32L1397 899h-2l.188 3.094c0 6.614-1.74 12.989-3.187 19.406l-.867 3.938L1389 935h-2l-.148 2.125c-.46 5.842-1.256 11.236-2.852 16.875h-1c-.316-6.796.841-13.317 2-20l.441-2.773C1386 929 1386 929 1388 927v-2.375c0-2.942.643-4.062 2-6.625 1.525-4.905 2.605-9.824 3.5-14.875 3.047-16.672 3.047-16.672 4.5-18.125z" fill="#d52f33"/><path d="M1391 928h1c-.237 10.113-.938 18.604-5 28-3.365 9.263-5.221 20.143-4 30l2 2c-.375 2.125-.375 2.125-1 4-4.066-5.845-4.716-9.976-4-17 1.951-10.545 4.639-20.962 7.188-31.375l1.115-4.578L1391 928z" fill="#460509"/><path d="M1739 1276l1 2c-10.327 17.937-26.786 28.438-46 35h-2v-2l2.449-.734c7.968-2.37 7.968-2.37 14.551-7.266l1-2c2.314-.731 4.648-1.401 7-2v-2l3.625-1.562c4.074-2.001 6.443-4.45 9.148-8.047L1731 1286h2l1-5h3l2-5z" fill="#c13335"/><path d="M1058 240c-2.734 1.823-5.366 3.021-8.394 4.257-15.148 6.243-28.369 15.885-36.352 30.516-1.258 2.234-2.675 4.21-4.254 6.227.45-5.853 3.038-10.082 6-15h2l.832-1.781c3.352-6.369 7.927-9.915 14.168-13.219l1-2c3.778-2.556 7.795-4.26 12-6l3.563-1.687c3.445-1.315 5.793-1.579 9.438-1.312z" fill="#430407"/><path d="M1245 905c1.52 3.979.525 7.603-.312 11.625l-.429 2.158-.862 4.264-.975 5.016c-.629 3.327-1.254 6.466-2.391 9.664-1.48 4.698-2.107 9.48-2.799 14.348-.317 1.992-.767 3.963-1.232 5.926l-3 2c.446-10.521 3.012-20.451 6.059-30.488 1.023-3.816 1.598-7.535 2.066-11.449l.262-2.072.613-4.99h2l1-6z" fill="#190206"/><path d="M1264 856c1.672 3.344.336 6.883-.312 10.438l-.396 2.354-.404 2.268-.368 2.072C1262 875 1262 875 1260 878a141.33 141.33 0 0 0-1.937 7.25l-.525 2.141c-1.453 6.023-2.637 12.084-3.811 18.167-.966 4.574-2.255 9.006-3.727 13.441h-1c-.492-7.525 1.336-14.086 3.313-21.312l.936-3.514 3.63-13.335.813-2.937.721-2.574c.781-3.092 1.176-6.169 1.588-9.328l1-1 .438-3.437C1262 858 1262 858 1264 856z" fill="#d42e34"/><path d="M1310 653l2 1-1 2h-2l-.332 2.309c-1.117 7.271-2.78 13.869-5.457 20.707-1.666 4.275-2.813 8.435-3.738 12.93-.569 2.474-1.429 4.744-2.473 7.055h-1l.438-3.375c.528-4.166.919-8.34 1.281-12.523C1298 681 1298 681 1299 679h2l.313-3.125c.532-4.063 1.193-8.096 1.938-12.125l.641-3.578c1.31-3.744 2.845-5.017 6.109-7.172z" fill="#190409"/><path d="M1415 841h1c-1.829 16.154-1.829 16.154-3.945 21.297-1.433 3.674-2.18 7.414-2.992 11.266-1.552 7.183-3.221 14.322-5.062 21.438-1.792-5.375-.057-11.105.75-16.625l.516-3.777c.981-6.832 2.27-13.151 4.734-19.598l.879-2.672c1.26-3.829 2.561-7.608 4.121-11.328z" fill="#1c0208"/><path d="M1411 830h1c-.287 5.75-.585 11.267-2.437 16.75-1.737 5.194-2.332 10.385-2.916 15.806-.322 2.974-.697 5.594-1.647 8.444h-2l-.367 2.336-.508 3.039-.492 3.023C1401 882 1401 882 1399 884c2.815-25.815 2.815-25.815 6-29 .645-2.625.645-2.625 1.063-5.562.84-5.34.84-5.34 1.938-6.437a118.32 118.32 0 0 0 1-4.875c.527-2.822 1.09-5.395 2-8.125z" fill="#cc3137"/><path d="M1746 657h1c1.236 11.547 1.039 23.019.879 34.613l-.072 6.2-.202 16.191-.201 16.572L1747 763h-1l-.443-37.475-.205-17.403-.195-16.806-.078-6.4-.101-8.99-.039-2.65c-.047-5.51.358-10.809 1.061-16.276z" fill="#d9272a"/><path d="M1273 805c1.274 2.549.824 3.331.074 6.035l-.666 2.455-.721 2.572c-1.533 5.57-2.99 11.127-4.212 16.774-.758 3.446-1.615 6.866-2.476 10.288l-.5 2.012c-1.081 4.316-2.257 8.592-3.5 12.863h-1c-.415-8.017 1.141-15.219 3-23h2l.113-1.801c.529-6.671 1.953-12.802 3.887-19.199h2l.438-3.937c.438-3.937.438-3.937 1.563-5.062z" fill="#4b0507"/><path d="M1358 473c0 2.84-.403 5.237-1 8h-3v2h-2l-.375 2.625c-.609 3.286-1.569 6.208-2.625 9.375l-1.535 7.047C1347 504 1347 504 1346 506l-.125 6.938-.008 3.777c-.019 3.292-.019 3.292 1.133 6.285v7c-5.35-10.344-4.337-25.301-1.047-36.258 2.935-7.688 6.37-14.731 12.047-20.742z" fill="#b53c41"/><path d="M1431 775l2 1-.687 2.456-2.566 9.22-1.103 3.953c-4.941 17.034-4.941 17.034-7.336 34.543L1421 828l-2 1c.443-6.681 1.113-13.204 2.391-19.777.812-4.293 1.522-8.6 2.234-12.91l.41-2.471L1425 788h2v-3h2l2-10z" fill="#190209"/><path d="M1289 739c1.386 2.772.629 4.043-.187 7.012l-.859 3.194-.953 3.482c-2.883 10.786-5.508 21.603-7.937 32.5l-.469 2.102L1276 799h-1l-.125-4.25-.07-2.391c.216-2.614 1.02-4.04 2.195-6.359.35-1.928.635-3.868.875-5.812.892-6.245 2.354-12.182 4.047-18.254a243.9 243.9 0 0 0 2.156-8.336l.532-2.2.995-4.208c.781-3.23 1.526-5.387 3.395-8.19z" fill="#460405"/><path d="M1738 273c10.418 13.347 12.644 28.525 12.25 44.875l-.055 4.434L1750 333h-1l-.06-2.595-.257-9.673-.104-4.16c-.185-8.024-.596-15.759-2.578-23.572h-2l-.516-1.977c-1.645-6.03-1.645-6.03-4.734-11.398-1.75-2.625-1.75-2.625-1.5-5L1738 273z" fill="#b4383e"/><path d="M1475 480l3 3v2h2c3.416 9.379 4.387 18.039 4.375 28l.004 3.254c-.077 5.615-.496 10.445-2.379 15.746h-1l1-32h-2l-.25-3.937c-.483-4.553-1.888-8.135-3.91-12.215C1475 482 1475 482 1475 480z" fill="#200107"/><path d="M1419 821h1c-.549 6.352-1.165 12.679-2 19l-3 1c-.931 2.187-.931 2.187-1.5 4.875l-.746 2.984L1412 852l-1.562 6.125-.691 2.758C1409 863 1409 863 1407 864c.614-8.599 2.809-16.695 5-25h3l-.187-1.937c.22-3.597 1.223-6.505 2.434-9.879.706-2.046 1.262-4.077 1.754-6.184z" fill="#3c050a"/><path d="M1230 975h2c-.698 7.002-1.772 13.885-3 20.813l-.539 3.1c-1.346 7.667-1.346 7.667-2 10.054-.584 2.573-.679 5.038-.778 7.674l-.127 3.242-.119 3.367-.131 3.414L1225 1035h-1c-.845-20.358.817-40.237 6-60z" fill="#55070b"/><path d="M1242 1082l7.289 7.43c8.967 9.387 19.072 15.025 30.711 20.57-3.449 1.15-3.797.922-6.906-.582l-2.254-1.076-2.34-1.154-2.34-1.119c-3.213-1.551-6.184-3.084-9.16-5.068v-2l-3-1v-2l-1.75-.812c-4.115-2.172-6.28-3.965-8.25-8.187l-2-1v-4z" fill="#460406"/><path d="M1447 570l-2 1v2l-7.625 2.438-2.16.697c-7.378 2.335-14.188 3.047-21.902 3.053l-2.588.037-2.486.006-2.249.012C1404 579 1404 579 1401 577l30-1v-2l5.188-2 2.918-1.125c2.816-.851 4.976-1.046 7.895-.875z" fill="#18040b"/><path d="M1344 489c1.475 2.951.604 5.073.063 8.313-1.513 9.859-1.249 19.741-1.062 29.688-3.354-3.427-4.471-5.792-4.454-10.621l.079-2.066.046-2.146c.263-8.332 1.726-15.631 5.329-23.166z" fill="#1a0207"/><path d="M1064.375 239.875l3.211.055 2.414.07c-3.565 1.949-6.918 2.689-10.879 3.438-2.398.514-2.398.514-5.121 2.563-2.051.527-2.051.527-4.312.938-3.947.803-7.125 2.151-10.687 4.063h-2v2l-6 2c3.863-4.315 7.735-6.71 12.938-9.187l2.092-1.037c6.141-2.998 11.396-5.055 18.346-4.9z" fill="#b8363b"/><path d="M1455 659h1c.356 7.268-.997 13.908-2.5 21l-.723 3.504L1451 692h-2l-1 10-3 1c1.766-9.275 3.946-18.441 6.125-27.625l1.129-4.777L1455 659z" fill="#4f080c"/><path d="M1398 907h1c.521 8.367-1.04 15.894-3 24l-.797 3.492c-1.937 8.242-1.937 8.242-4.203 10.508-.205-12.908-.205-12.908 1-18l2-1c.655-1.927.655-1.927 1.07-4.254l.527-2.588.527-2.721.551-2.732L1398 907z" fill="#1f0208"/><path d="M1472 487c4.861 3.935 6.269 10.055 7 16 .164 3.688.185 7.371.188 11.063l.037 2.971.006 2.877.012 2.598c-.272 2.793-1.092 4.945-2.243 7.492h-2l-1 3 .375-5.312.211-2.988C1475 522 1475 522 1477 519c.908-8.893-.449-17.097-3.625-25.375C1472 490 1472 490 1472 487z" fill="#d43034"/><path d="M1422 786h1c-.606 7.481-2.139 14.614-3.901 21.904l-1.396 5.963-.914 3.813-.822 3.46c-.948 2.803-1.686 4.044-3.967 5.86l.84-3.77c1.909-8.72 3.758-17.283 4.16-26.23h1l.621-1.898.816-2.477.809-2.461C1421 788 1421 788 1422 786z" fill="#d62d33"/><path d="M1406 864h1c.164 6.165-.447 11.921-1.437 18l-.809 5.125-.396 2.482c-.338 2.263-.607 4.524-.858 6.799-.523 3.759-1.619 6.323-3.5 9.594h-1v-8h2l.136-1.829c1.696-22.16 1.696-22.16 4.864-32.171z" fill="#2c0104"/><path d="M1449 692h2l-2.437 16.375-.369 2.422c-2.562 16.407-2.562 16.407-6.193 20.203.922-5.663.922-5.663 1.5-8.156.681-3.874.862-7.732 1.063-11.656l.131-2.389L1445 703l3-1 1-10z" fill="#12020a"/><path d="M1708 1305c-11.411 7.041-21.055 7.395-34.062 7.188l-4.936-.041L1657 1312v-1l2.539-.076 9.314-.296 6.018-.184 3.809-.127 3.523-.111c2.751-.024 2.751-.024 4.797-1.205 1.352-.129 2.707-.229 4.063-.312 4.528-.432 7.98-1.86 11.992-3.945C1705 1304 1705 1304 1708 1305z" fill="#d52b30"/><path d="M1263 1101c5.372-.5 6.906.724 11 4 4.762 2.03 9.684 3.592 14.625 5.125C1291 1111 1291 1111 1292 1113l3 2c-11.744-2.184-21.701-7.203-32-13v-1z" fill="#af3337"/><path d="M1416.375 445.25l2.25.121c4.444.29 8.162 1.099 12.375 2.629 2.077.364 2.077.364 4 .5 3.548.395 6.704 1.053 10 2.5l1 3-13-2v-2l-3.875-.437c-2.382-.269-3.97-.485-6.125-1.562-1.447-.151-2.899-.249-4.352-.316l-2.578-.127-2.695-.119-2.719-.131L1404 447c4.159-2.361 7.725-2.094 12.375-1.75z" fill="#1a0308"/><path d="M1440 454l2 2a186.05 186.05 0 0 1-12-2c-6.061-1.11-12.038-1.436-18.187-1.625l-3.174-.117L1401 452v-1c13.588-1.874 25.979-1.351 39 3z" fill="#ba3c40"/><path d="M1429 752h2c.196 4.904-.434 8.393-2 13-.327 2.314-.557 4.621-.754 6.949-.307 2.555-1.037 4.658-2.246 6.926-1.11 2.359-1.573 4.562-2 7.125l-2-1c4.156-22.595 4.156-22.595 7-33z" fill="#d32e33"/><path d="M1472 547l2 2c-4.71 6.798-9.598 12.202-16.875 16.25-3.183 1.398-3.183 1.398-4.125 3.75h-5l1-2h2l1-3c1.828-.535 1.828-.535 4-1 6.831-3.889 11.379-9.782 16-16z" fill="#18030a"/><path d="M1439 728h1c.184 5.341-.257 8.908-2 14-.796 3.576-1.508 7.164-2.219 10.758-.659 2.736-1.385 4.824-2.781 7.242-1.294-3.664-.705-6.274.18-10.008l.816-3.488.879-3.629.855-3.652c2.107-8.898 2.107-8.898 3.27-11.223z" fill="#4d0609"/><path d="M1445 693c-.663 7.726-1.787 15.343-3 23l-1 7-3-1c.426-5.467 1.062-10.626 2.531-15.91.746-3.326.918-6.69 1.125-10.086L1442 694c2-1 2-1 3-1z" fill="#d12c33"/><path d="M1127 1179c2.524 1.262 2.58 2.125 3.625 4.688 2.779 5.722 7.061 8.951 12.895 11.348A98.53 98.53 0 0 0 1150 1197v1c-6.135.783-9.07-.955-13.984-4.59-2.059-1.583-2.059-1.583-5.016-2.41-1.605-1.848-1.605-1.848-3.187-4.062l-1.605-2.223L1125 1183l2-4z" fill="#ba343b"/><path d="M1363 469l3 1-5 6h-2l.375 2.063c-.498 3.897-2.296 5.409-4.906 8.223-1.773 2.07-2.681 4.117-3.469 6.715-1.467-3.815-.433-6.29 1-10h2v-2h3l-.125-2.312C1357 476 1357 476 1359 473h2l2-4z" fill="#d13034"/><path d="M1284 1112c2.958.413 5.609.838 8.376 1.986 2.696 1.042 5.064 1.498 7.925 1.866l2.959.391 3.053.383 3.111.406 7.576.969v1c-10.912.47-19.691-.051-30-4l-3-1v-2z" fill="#490508"/><path d="M1252 876c.917 3.345 1.01 5.967.688 9.438l-.238 2.809c-.463 2.839-1.317 5.119-2.449 7.754l-2 7h-3l1-1c.629-3.643 1.191-7.289 1.719-10.947.831-5.36 2.222-10.031 4.281-15.053z" fill="#1b0308"/><path d="M1680 239c7.637.026 14.328 1.125 21.438 3.813l2.004.752c4.277 1.7 7.837 3.783 11.559 6.435l-2 1c-2.102-.926-2.102-.926-4.625-2.312-3.793-1.975-7.204-3.339-11.371-4.223-2.274-.528-4.425-1.258-6.629-2.027-3.439-1.18-6.757-1.974-10.375-2.437v-1z" fill="#ae3c41"/><path d="M1450 564l2 1c-2.28 3.61-3.537 4.859-7.687 6.125l-2.117.406c-2.292.489-4.325 1.249-6.508 2.094-5.205 1.811-10.238 1.65-15.687 1.375v-1l3.008-.41c9.082-1.39 16.274-3.766 24.297-8.262L1450 564z" fill="#4b070b"/><path d="M1745 293c3.727 5.591 4.248 11.081 4.195 17.684l-.009 2.122-.062 6.632-.027 4.529L1749 335h-1l-.06-2.029-.315-9.284-.094-3.189c-.228-6.185-.842-12.067-2.104-18.129-.575-3.186-.571-6.141-.428-9.369z" fill="#cf3337"/><path d="M1048 246l2 1-1.652.848c-6.803 3.617-13.112 7.799-18.484 13.367C1028 263 1028 263 1026 263v-2h2l.125-1.75c1.33-3.419 3.772-4.477 6.875-6.25h2v-2l5.375-2.562 3.023-1.441L1048 246z" fill="#cf3135"/><path d="M1265 830h1c-.332 9.839-2.214 18.63-5 28h-1c-.415-8.017 1.141-15.219 3-23h2v-5z" fill="#4a0103"/><path d="M1362 466l3 1-2.242 1.664c-2.809 2.379-4.748 4.722-6.883 7.711l-2.008 2.773c-1.874 2.862-3.401 5.764-4.867 8.852h-1c-.312-3.25-.312-3.25 0-7 2.188-1.937 2.188-1.937 5-4 .902-1.323 1.754-2.681 2.563-4.062 1.786-3.001 3.218-5.328 6.438-6.937z" fill="#4a0b0d"/><path d="M1259 858h1c-.172 7.09-1.538 13.64-3.437 20.438l-.659 2.367c-1.039 3.605-2.152 6.864-3.904 10.196.633-6.974 1.907-13.623 3.5-20.437l.684-3.006c1.677-7.277 1.677-7.277 2.816-9.557z" fill="#4f0507"/><path d="M1325 649l-5.156 3.367-2.344 1.508-2.344 1.492c-4.196 3.177-5.582 6.337-6.844 11.383l-.762 2.984L1307 672c-1.381-3.767-.596-6.448.438-10.25l.871-3.266L1309 656h2l1-3c3.971-2.774 8.098-4.613 13-4z" fill="#440408"/><path d="M1463 549l1 2c-1.149 3.446-2.076 4.092-4.937 6.188l-2.152 1.605C1455 560 1455 560 1453 560v2h-4v2h-5l3-2 2-3 2.313-.875c3.35-1.402 5.176-3.546 7.688-6.125h2v-2l2-1z" fill="#d32c30"/><path d="M1049 1307c7.982.309 14.631 1.936 22 5v1l-4.25.625-2.391.352c-2.681.027-4.086-.611-6.359-1.977l1-1-10-3v-1z" fill="#c32e32"/><path d="M1411 830h1c-.582 11.688-3.501 21.267-8 32h-1c-.125-2.375-.125-2.375 0-5l2-2c.645-2.625.645-2.625 1.063-5.562.84-5.34.84-5.34 1.938-6.437a118.32 118.32 0 0 0 1-4.875c.527-2.822 1.09-5.395 2-8.125z" fill="#d62c31"/><path d="M1734 1279c1 2 1 2 .375 4.313-1.659 3.243-3.713 5.215-6.375 7.688l-2 2.188c-2.213 2.005-4.185 2.874-7 3.813l2-4h2l1-3 3.938-4c2.393-2.293 4.212-4.225 6.063-7z" fill="#d72d31"/><path d="M1738 1280c1 3 1 3 .145 4.902-6.484 9.906-6.484 9.906-12.145 12.098h-3l2.266-2.195 2.984-2.93 1.488-1.437c3.282-3.238 5.823-6.523 8.262-10.437z" fill="#3d0304"/><path d="M1740 276h3v4h2l.586 2.082.789 2.73.773 2.707c.804 2.685.804 2.685 2.852 5.48l.625 6.188.227 3.293.148 2.52c-1.895-3.397-2.827-6.809-3.812-10.562-1.8-6.487-4.191-12.419-7.187-18.437z" fill="#48060b"/><path d="M1431 760c1.05 3.258.92 5.538.258 8.879l-.543 2.791-.59 2.893-.566 2.904c-.71 3.592-1.4 7.056-2.559 10.533h-2c.68-9.515 2.985-18.956 6-28z" fill="#55070a"/><path d="M1383 965c.724 2.527 1.014 3.92.563 6.563-.781 4.773-1.027 9.615-.562 14.438l2 2c-.375 2.125-.375 2.125-1 4-3.985-5.728-4.89-10.07-4-17 .813-3.407 1.821-6.702 3-10z" fill="#4b0205"/><path d="M1349 493l2 1 .188 4.313.105 2.426C1351 503 1351 503 1349.5 504.469c-1.749 1.474-1.749 1.474-1.793 4.012l.105 2.707.082 2.73L1348 516l-2 1c-.367-8.559.26-15.862 3-24z" fill="#d82d33"/><path d="M1750 1243h1l.125 7.125.051 2.016c.043 4.355-.576 7.815-2.176 11.859h-2v5l-3 1 .551-1.59c2.697-8.311 4.042-16.809 5.449-25.41z" fill="#50090a"/><path d="M1138 355h4l1 3-3.625 1.438c-6.451 3.191-9.336 9.313-12.375 15.563l-1-2c1.055-3.121 2.553-6.044 4-9l1.438-2.937c1.91-2.521 3.569-3.173 6.563-4.062v-2z" fill="#b83739"/><path d="M1739 1276l1 2c-4.379 7.37-9.792 13.123-16 19l-2-1 4.375-5 2.461-2.812L1731 1286h2l1-5h3l2-5z" fill="#bd4143"/><path d="M1270 832h1c.309 5.253-.335 7.592-3 12-.603 2.62-1.06 5.234-1.473 7.891L1266 854l-2 1c.585-6.142 1.541-12.007 3-18h2l1-5z" fill="#d52e34"/><path d="M1745 280c5.803 5.207 7.178 12.637 7.75 20.125L1753 306l-2-1c-.562-2.617-.562-2.617-1-5.875-.523-3.876-.803-5.829-3-9.125-.437-1.714-.808-3.447-1.125-5.187l-.508-2.73L1745 280z" fill="#200108"/><path d="M1300 703l2 1c.414 2.066.414 2.066.625 4.563l.227 2.504L1303 713l-2 1c-2.35 4.7-3.461 8.722-4 14h-1l-.062-4.25-.035-2.391c.094-2.266.465-4.188 1.098-6.359h2l1-12z" fill="#d72f35"/><path d="M1380 570c4.574.785 8.902 2.155 13.313 3.563l2.244.709L1401 576l-1 2c-15.697-2.685-15.697-2.685-20-8z" fill="#1d0208"/><path d="M1709 1310c-1 2-1 2-4.273 3.289l-4.102 1.336-2.078.695c-2.961.968-5.413 1.68-8.547 1.68 5.015-5.539 11.704-7.621 19-7z" fill="#1d0105"/><path d="M1274 793h1c.594 7.573-1.567 13.875-4 21h-2c-.471-5.53.638-8.939 3.043-13.91 1.068-2.332 1.629-4.548 1.957-7.09z" fill="#2e0103"/><path d="M1004 1253c2.122 3.99 3.469 8.166 4.902 12.441 1.092 2.546 2.166 3.66 4.098 5.559.188 3.188.188 3.188 0 6-5.53-4.754-8.04-13.195-8.812-20.25L1004 1253z" fill="#b83b41"/><path d="M1461 554l2 1c-5.371 5.117-10.917 10.397-18 13l-3-1h2v-2l5-1v-2h4v-2c1.75-1.508 1.75-1.508 4-3.125l2.25-1.633L1461 554z" fill="#b4393e"/><path d="M1716 251c6.962 3.33 11.731 8.444 17 14l-1 3-2-2.062c-2.972-2.998-6.185-5.685-9.426-8.387L1719 256v-2l-3-1v-2z" fill="#b03d44"/><path d="M1355 542c2 1.313 2 1.313 4 3v3l4 2v2h2v2l-4-1v-2l-1.875-.375C1357 550 1357 550 1355 548v-6z" fill="#c93137"/><path d="M1622 1183c.82 2.297 1.105 3.627.438 6-3.398 4.728-9.084 7.116-14.437 9-2.211-.426-2.211-.426-4-1l1.688-.629c6.027-2.433 10.912-5.533 15.313-10.371l1-3z" fill="#b3363b"/><path d="M1438 745h1c.224 4.84-.578 8.843-1.875 13.5l-1.055 3.844c-.951 3.248-1.974 6.455-3.07 9.656-1.07-3.216-.936-4.875.313-8 1.736-4.764 2.529-9.489 3.258-14.496C1437 747 1437 747 1438 745z" fill="#11030a"/><path d="M1444 705h1c.379 7.378.067 14.162-3 21l-2 1c.638-7.526 2.199-14.671 4-22z" fill="#51050a"/><path d="M1009 284l1 3-3 5-1.687 6.813-.762 3.52L1004 305h-2c.538-6.992 2.258-13.532 5-20l2-1z" fill="#b0383c"/><path d="M1714 1304c-14.597 7.667-14.597 7.667-22 9v-2l2.484-.77 3.266-1.043 3.234-1.02c2.824-1.094 4.685-2.282 7.016-4.168 3.517-1.241 3.517-1.241 6 0z" fill="#af373b"/><path d="M1740 1283l2 1-3 2 1-3zm-2 3c0 4.068-1.542 5.097-4.25 8.063l-2.391 2.66c-2.1 2.027-3.686 3.192-6.359 4.277 1.569-3.851 4.016-6.152 7-9l3.313-3.312L1738 1286z" fill="#14040a"/><path d="M1370 556l.563 1.875c2.155 3.186 4.784 3.212 8.438 4.125 3.215 1.484 6.053 3.036 9 5-4.898.349-7.659-.532-11.875-3l-2.93-1.687L1371 561v-2l-3-1 2-2z" fill="#d02e34"/><path d="M1357 553c3.872.574 6.185 2.341 9 5v3h2v2l-5-2v-2l-5-1-1-5z" fill="#2f0308"/><path d="M1387 945h1c.348 6.378-.758 11.061-3 17l-1.187 3.563L1383 968c-1.064-3.246-.911-5.274-.004-8.547l.693-2.559.748-2.645.736-2.691L1387 945z" fill="#5d0b0e"/><path d="M1472 480h3c3.371 6.549 5.7 11.575 5 19-2.098-3.972-3.513-8.114-5-12.344a57.12 57.12 0 0 0-3-6.656z" fill="#45070b"/><path d="M1735 273h2l1.313 3.188a45.65 45.65 0 0 0 3.438 6.625L1743 285l-1 2-4-2v-2l-2-1c-.414-2.066-.414-2.066-.625-4.562l-.227-2.504L1735 273z" fill="#d72f34"/><path d="M1047 244l1 3-4.375 2-2.461 1.125C1039 251 1039 251 1037 251v2l-6 2c4.441-5.207 9.959-7.921 16-11z" fill="#a8373c"/><path d="M1465 554l2 1-4.25 3.875-2.391 2.18c-2.08 1.715-3.904 2.875-6.359 3.945l-2-2c3.925-2.847 7.818-5.54 12-8l1-1z" fill="#380306"/><path d="M1225 1041c1.507 2.797 2.482 5.403 3.188 8.5l.543 2.281c.288 2.367-.008 3.964-.73 6.219-3.616-5.575-3.307-10.606-3-17z" fill="#55090c"/><path d="M1424 788h1c.225 6.084.018 12.194-2 18l-3 2c.66-6.86 2.236-13.344 4-20z" fill="#5c0b10"/><path d="M1449 692h2c-.55 4.585-1.431 8.661-3 13l-1.125 3.375L1446 711h-1v-8l3-1 1-10z" fill="#280006"/><path d="M1320 654c-.125 1.75-.125 1.75-1 4l-2.937 1.938c-3.272 2.204-4.031 3.348-5.062 7.063-.75-1.625-.75-1.625-1-4 4.959-9 4.959-9 10-9z" fill="#cb3136"/><path d="M1002 285h1c.218 5.439.104 9.871-2 15h-2c.445-5.273 1.084-10.018 3-15z" fill="#14020a"/><path d="M1451 460c12.195 6.585 12.195 6.585 14 12h-2v-2l-1.75-.875L1459 468l-2-.875c-2.459-1.383-4.147-3.007-6-5.125v-2z" fill="#b0383c"/><path d="M1378 458l-5.312 3.5-2.988 1.969C1367 465 1367 465 1364 465l3-4h2v-2c5.625-2.125 5.625-2.125 9-1z" fill="#430709"/><path d="M1036 1299h4v2l4 1v2l6 1v1h-7v-2l-4-1v-2l-3-1v-1z" fill="#d12f33"/><path d="M1132 1181l3 1v4h2v3h4v2c-2.812-.187-2.812-.187-6-1-2.67-3.293-3-4.681-3-9z" fill="#1d0205"/><path d="M1612 361c2.25-.25 2.25-.25 5 0 2.313 1.875 2.313 1.875 4 4v2h-5v-2l-4-2v-2z" fill="#360509"/><path d="M1007 282l2 1-2.375 6.75-.672 1.922c-1.14 3.22-2.328 6.321-3.953 9.328.243-7.402.68-12.869 5-19z" fill="#4a0408"/><path d="M1033 1300l4.813 2.875 2.707 1.617L1046 1308c-6.625.25-6.625.25-10-2v-2h-2l-1-4z" fill="#430407"/><path d="M1395 927c1.336 3.712.663 6.363-.312 10.125l-.801 3.195C1393 943 1393 943 1391 945c1.714-15.714 1.714-15.714 4-18z" fill="#12040c"/><path d="M1433 452c5.99-.315 9.636.318 15 3l-1 2-4.75-1.375-2.672-.773c-2.339-.773-4.413-1.688-6.578-2.852z" fill="#4a080b"/><path d="M1001 1245h1l.402 2.449.535 3.238.527 3.199L1005 1262c-2.725-2.607-3.963-3.922-4.098-7.82l.035-3.305.027-3.32.035-2.555z" fill="#4b0406"/><path d="M1406 864h1c.333 6.21-.55 10.283-3 16-1.381-3.767-.596-6.448.438-10.25l.871-3.266L1406 864z" fill="#57080c"/><path d="M1621 367c3.327 3.327 3.623 4.471 4 9l-1 3h-2l-1-12z" fill="#4a060b"/><path d="M1306.813 1114.438l3.52.309 2.668.254v1c-12.67 1.333-12.67 1.333-18 0v-1c4.097-1.042 7.615-.944 11.813-.562z" fill="#b33235"/><path d="M1134 362c.625 1.875.625 1.875 1 4l-2 2c-.648 2.571-.648 2.571-1 5h-2c-.652-1.766-.652-1.766-1-4 .996-1.922.996-1.922 2.438-3.75l1.434-1.859L1134 362z" fill="#44080c"/><path d="M1265 830h1c.592 6.665-1.517 11.87-4 18-1.073-3.272-.893-5.429-.062-8.75l.59-2.422L1263 835h2v-5z" fill="#300002"/><path d="M1455 650h3c.083 4.833-.047 9.237-1 14h-1l-.5-5.312-.281-2.988C1455 653 1455 653 1455 650z" fill="#2b0308"/><path d="M1345 534h3l3 11c-4-4-4-4-6-7v-4z" fill="#300204"/><path d="M1682 237c5.273.445 10.018 1.084 15 3-3.352 1.102-5.751.893-9.187.188l-2.668-.52L1683 239l-1-2z" fill="#440509"/><path d="M1025 1297l2.313.938L1033 1300l1 4 2 1c-3.362-.595-5.212-1.744-7.75-4l-1.859-1.625L1025 1298v-1z" fill="#210206"/><path d="M1232 975h1l.125 5.25.07 2.953c-.197 2.817-.75 4.406-2.195 6.797-1.4-5.461-.427-9.693 1-15z" fill="#ae3237"/><path d="M1278 782h1c-.515 5.853-1.454 11.33-3 17h-1c-.404-6.459.408-11.061 3-17z" fill="#58070b"/><path d="M1445 693l-1 10-3 1 .375-4.937.211-2.777L1442 694c2-1 2-1 3-1z" fill="#d92c32"/><path d="M1309 657l3 1-1.375 3.063c-1.544 3.585-2.625 7.168-3.625 10.938-1.044-3.219-.924-5.354-.125-8.625l.555-2.352C1308 659 1308 659 1309 657z" fill="#52080b"/><path d="M1368 563l12 6c-2 1-2 1-3.84.547l-2.098-.797-2.09-.766c-2.11-1.053-3.408-2.238-4.973-3.984l1-1z" fill="#1d0208"/><path d="M1353 478l-1.375 4.438-.773 2.496C1350 487 1350 487 1348 488c-.367-6.483-.367-6.483 1.375-8.937C1351 478 1351 478 1353 478z" fill="#3c0709"/><path d="M1239 1081l3 1v4l4 2v2c-3.653-1.25-4.781-1.671-7-5v-4z" fill="#250307"/><path d="M1403 895c.393 4.449-.847 7.142-3 11h-1c-.368-7.488-.368-7.488 1.438-10 1.563-1 1.563-1 2.563-1z" fill="#1e0206"/><path d="M1251 891h1l-.375 4.75-.211 2.672c-.413 2.569-1.126 4.337-2.414 6.578-.369-9.41-.369-9.41 2-14z" fill="#50070a"/><path d="M1302 687c1.617 3.234.009 6.306-.937 9.625l-.592 2.141L1299 704c-1.568-5.333-.972-10.133 1.563-15l1.438-2z" fill="#53080a"/><path d="M1603 356c5.712.387 8.737.87 13 5l-3 1-2-1v-2l-2.875-.375C1605 358 1605 358 1603 356z" fill="#4c0709"/><path d="M1725 261c5.875 3.75 5.875 3.75 7 6l-2 2-6-5 1-3z" fill="#d23034"/><path d="M1046 1308l12 4v1c-4.958.292-8.028.129-12-3v-2z" fill="#420305"/><path d="M1713 1305c0 2 0 2-1 3.625-3.201 2.201-6.179 1.563-10 1.375 7.5-5 7.5-5 11-5z" fill="#430507"/><path d="M1619 1191l3 1c-2.548 2.972-5.453 4.415-9 6h-2v-2c1.631-1.058 3.303-2.053 5-3l3-2z" fill="#d52e34"/><path d="M1135 1190c4.308 1.077 7.636 2.039 11 5-3 1-3 1-5.043.039l-2.145-1.414-2.168-1.398L1135 1191v-1z" fill="#4a0407"/><path d="M1032 1299c4.75.875 4.75.875 7 2v2l4 1v2c-4.108-1.45-7.469-3.454-11-6v-1z" fill="#b0383b"/><path d="M1739 1276l1 2-6 9c-1-4-1-4 0-6h3l2-5z" fill="#b33b3d"/><path d="M1716 248c6.476.611 6.476.611 8.938 2.438C1726 252 1726 252 1726 254h-3v-2l-2.937-.875C1717 250 1717 250 1716 248z" fill="#17030a"/><path d="M1241 1074l2 1v3h2l2 5-5-2-1-7z" fill="#d13035"/><path d="M1450 655l3 2-3 11c-.894-3.575-1.026-5.249-.562-8.75l.309-2.422L1450 655z" fill="#e22d31"/><path d="M1720 1299l2 1c-2.25 2.563-2.25 2.563-5 5l-4-1 7-5z" fill="#4a0505"/><path d="M1143 357l2 1c-2.068 2.797-3.144 3.027-6.687 3.688L1135 362c2.688-2.252 4.646-3.882 8-5z" fill="#490406"/><path d="M1728 1294l2 1-8 7-1-2c1.378-2.756 3.371-3.489 6-5l1-1z" fill="#2c0002"/><path d="M1291 1111l6 1v2l3 1-8-1-1-3z" fill="#cc3539"/><path d="M1269 1101c4.035 1.59 8.018 3.282 12 5v1c-4.457-.262-6.515-.577-9.937-3.562L1269 1101z" fill="#d22c33"/><path d="M1230 975h2l-1 9h-2l1-9z" fill="#3f0103"/><path d="M1405 882l2 1-3 12c-1.019-3.058-1.002-4.498-.625-7.625l.273-2.414C1404 883 1404 883 1405 882z" fill="#12030b"/><path d="M1440 713c2.567 3.85 1.833 5.586 1 10l-3-1c.588-3.024 1.227-6.018 2-9z" fill="#c13138"/><path d="M1377 461v2l-10 5c1.544-4.633 5.122-7 10-7z" fill="#cb3236"/><path d="M1707 248l1.688.438L1716 250v3c-4.314-.479-6.166-1.746-9-5z" fill="#c43034"/><path d="M1257 1101l9 4v2c-6.646-1.477-6.646-1.477-8.437-4.125L1257 1101z" fill="#1a040c"/><path d="M1415 834h1c.178 4.548-.002 7.879-2 12h-1v-7h2v-5z" fill="#2b0004"/><path d="M1730 1290l1 3-6 5-2-1 7-7z" fill="#55080a"/><path d="M1242 1081c2.438.688 2.438.688 5 2 .813 2.625.813 2.625 1 5-4.875-3.625-4.875-3.625-6-7z" fill="#b6383c"/><path d="M1389 995l8 2c-3 2-3 2-5.687 1.625L1389 998v-3z" fill="#ad3033"/><path d="M1295 728h1l-1 8h-2c.875-6.875.875-6.875 2-8z" fill="#d42f34"/></svg>